<svg width="179" height="58" viewBox="0 0 179 58" fill="none" xmlns="http://www.w3.org/2000/svg">
    <g id="Group">
        <g id="Group_2">
            <g id="Group_3">
                <path id="Vector"
                    d="M164.746 0.000187417H14.2625C13.714 0.000187417 13.172 0.000187417 12.6249 0.00307075C12.167 0.00595408 11.7127 0.0143302 11.2503 0.0213799C10.2459 0.0327717 9.24379 0.117937 8.25278 0.276137C7.26316 0.43778 6.30454 0.742524 5.40934 1.18006C4.51523 1.6213 3.69827 2.19465 2.98807 2.8793C2.27415 3.56202 1.67904 4.35116 1.22563 5.21637C0.770964 6.07985 0.455698 7.00516 0.290719 7.96032C0.124172 8.91428 0.0345518 9.87924 0.0226622 10.8465C0.00878066 11.2886 0.00731473 11.732 0 12.1741V45.4972C0.00731473 45.9448 0.00878066 46.3785 0.0226622 46.8262C0.0345555 47.7935 0.124176 48.7584 0.290719 49.7123C0.455242 50.668 0.770527 51.5939 1.22563 52.4577C1.67884 53.3201 2.27403 54.106 2.98807 54.785C3.69557 55.4727 4.51307 56.0464 5.40934 56.4843C6.30453 56.923 7.26305 57.2295 8.25278 57.3937C9.24396 57.5506 10.2459 57.6358 11.2503 57.6486C11.7127 57.6584 12.167 57.664 12.6249 57.664C13.172 57.6669 13.714 57.6669 14.2625 57.6669H164.746C165.283 57.6669 165.829 57.6669 166.367 57.664C166.823 57.664 167.29 57.6584 167.746 57.6486C168.749 57.6365 169.749 57.5513 170.738 57.3937C171.731 57.2284 172.693 56.9219 173.592 56.4843C174.488 56.0461 175.304 55.4724 176.011 54.785C176.723 54.1034 177.32 53.318 177.779 52.4577C178.23 51.5933 178.543 50.6675 178.705 49.7123C178.872 48.7583 178.964 47.7936 178.982 46.8262C178.988 46.3785 178.988 45.9448 178.988 45.4972C179 44.9734 179 44.4525 179 43.9203V13.7481C179 13.2202 179 12.6964 178.988 12.1741C178.988 11.732 178.988 11.2886 178.982 10.8465C178.964 9.8791 178.872 8.91435 178.705 7.96026C178.542 7.00565 178.23 6.08042 177.779 5.21631C176.855 3.4821 175.391 2.07046 173.592 1.17993C172.693 0.743464 171.731 0.438801 170.738 0.276007C169.749 0.117111 168.749 0.0319153 167.746 0.0211781C167.29 0.0141428 166.823 0.00569458 166.367 0.00288333C165.829 0 165.283 0 164.746 0V0.000187417Z"
                    fill="#A6A6A6" />
                <path id="Vector_2"
                    d="M12.6346 56.4044C12.1788 56.4044 11.7341 56.3988 11.2819 56.389C10.3451 56.3772 9.41061 56.2986 8.48592 56.1538C7.62369 56.0107 6.78843 55.7445 6.00768 55.3639C5.23408 54.9865 4.52851 54.4917 3.91797 53.8983C3.2986 53.312 2.78294 52.6319 2.39144 51.885C1.99562 51.1333 1.72169 50.3276 1.57919 49.4959C1.4253 48.6022 1.34204 47.6986 1.33013 46.7928C1.32064 46.4887 1.30823 45.4764 1.30823 45.4764V12.1731C1.30823 12.1731 1.32145 11.1763 1.3302 10.8835C1.34161 9.97907 1.42438 9.07684 1.57781 8.18456C1.72057 7.35058 1.99472 6.54253 2.39075 5.78836C2.78081 5.04203 3.29361 4.36144 3.90925 3.77298C4.5242 3.17893 5.23204 2.68153 6.00695 2.29892C6.7859 1.9196 7.61959 1.65525 8.48007 1.51474C9.4078 1.36851 10.3456 1.28945 11.2856 1.27822L12.6353 1.26062H166.362L167.728 1.27893C168.659 1.2896 169.589 1.36795 170.508 1.51333C171.377 1.6556 172.219 1.92179 173.007 2.30315C174.56 3.07422 175.823 4.29412 176.62 5.79188C177.009 6.54084 177.279 7.3423 177.42 8.16907C177.576 9.06868 177.662 9.978 177.68 10.8898C177.685 11.2981 177.685 11.7366 177.685 12.1731C177.696 12.7137 177.696 13.2283 177.696 13.7471V43.9193C177.696 44.443 177.696 44.9541 177.685 45.4693C177.685 45.9382 177.685 46.3676 177.679 46.8097C177.661 47.7052 177.576 48.5983 177.423 49.4818C177.284 50.3195 177.011 51.1315 176.615 51.8894C176.221 52.6281 175.708 53.3023 175.096 53.8871C174.485 54.4836 173.778 54.9814 173.003 55.3612C172.217 55.7447 171.376 56.0119 170.508 56.1538C169.583 56.2994 168.649 56.378 167.712 56.389C167.274 56.3988 166.815 56.4044 166.369 56.4044L164.748 56.4073L12.6346 56.4044Z"
                    fill="black" />
            </g>
            <g id="&#60;Group&#62;">
                <g id="&#60;Group&#62;_2">
                    <g id="&#60;Group&#62;_3">
                        <path id="&#60;Path&#62;"
                            d="M37.0528 29.266C37.0689 28.0626 37.4006 26.8828 38.0169 25.8362C38.6332 24.7897 39.5142 23.9103 40.5779 23.2801C39.9022 22.35 39.0107 21.5845 37.9744 21.0445C36.938 20.5046 35.7853 20.2049 34.6077 20.1694C32.0958 19.9153 29.6606 21.618 28.3806 21.618C27.0758 21.618 25.105 20.1946 22.9828 20.2367C21.6101 20.2795 20.2723 20.6642 19.0997 21.3534C17.9272 22.0426 16.9598 23.0128 16.292 24.1694C13.399 28.9967 15.5569 36.0912 18.3281 39.9932C19.7147 41.904 21.3351 44.0383 23.4554 43.9626C25.5302 43.8796 26.3051 42.6875 28.8096 42.6875C31.2909 42.6875 32.0179 43.9626 34.1813 43.9145C36.4077 43.8796 37.8104 41.9953 39.1483 40.0665C40.1445 38.705 40.911 37.2003 41.4196 35.6081C40.1261 35.0808 39.0223 34.1983 38.2458 33.0705C37.4692 31.9426 37.0543 30.6195 37.0528 29.266Z"
                            fill="white" />
                        <path id="&#60;Path&#62;_2"
                            d="M32.9667 17.6036C34.1807 16.1991 34.7787 14.3939 34.6339 12.5713C32.7793 12.759 31.0661 13.6133 29.8358 14.9639C29.2343 15.6237 28.7736 16.3913 28.48 17.2228C28.1864 18.0543 28.0658 18.9334 28.125 19.8099C29.0526 19.8191 29.9703 19.6253 30.809 19.2432C31.6477 18.861 32.3854 18.3004 32.9667 17.6036Z"
                            fill="white" />
                    </g>
                </g>
                <g id="Group_4">
                    <path id="Vector_3"
                        d="M63.2807 39.129H56.2002L54.4999 43.9679H51.5009L58.2074 26.0653H61.3232L68.0297 43.9679H64.9796L63.2807 39.129ZM56.9335 36.8961H62.546L59.7792 29.043H59.7018L56.9335 36.8961Z"
                        fill="white" />
                    <path id="Vector_4"
                        d="M82.5156 37.44C82.5156 41.4961 80.263 44.102 76.8638 44.102C76.0027 44.1454 75.1463 43.9543 74.3927 43.5504C73.6391 43.1465 73.0187 42.5463 72.6026 41.8184H72.5383V48.2834H69.7584V30.913H72.4493V33.084H72.5004C72.9356 32.3596 73.5665 31.7625 74.3258 31.3561C75.0851 30.9498 75.9446 30.7495 76.8126 30.7765C80.2498 30.7765 82.5156 33.3951 82.5156 37.44ZM79.6583 37.44C79.6583 34.7974 78.2413 33.06 76.0793 33.06C73.9553 33.06 72.5267 34.834 72.5267 37.44C72.5267 40.0699 73.9553 41.8311 76.0793 41.8311C78.2413 41.8311 79.6583 40.1065 79.6583 37.44Z"
                        fill="white" />
                    <path id="Vector_5"
                        d="M97.4205 37.4399C97.4205 41.496 95.168 44.102 91.7687 44.102C90.9076 44.1454 90.0512 43.9543 89.2976 43.5504C88.544 43.1465 87.9236 42.5463 87.5076 41.8184H87.4432V48.2834H84.6633V30.913H87.3541V33.084H87.4052C87.8405 32.3596 88.4713 31.7624 89.2307 31.3561C89.99 30.9498 90.8494 30.7495 91.7175 30.7765C95.1548 30.7765 97.4205 33.3951 97.4205 37.4399ZM94.5632 37.4399C94.5632 34.7974 93.1462 33.06 90.9842 33.06C88.8602 33.06 87.4316 34.834 87.4316 37.4399C87.4316 40.0699 88.8602 41.8311 90.9842 41.8311C93.1462 41.8311 94.5632 40.1065 94.5632 37.4399H94.5632Z"
                        fill="white" />
                    <path id="Vector_6"
                        d="M107.272 38.9794C107.478 40.7547 109.268 41.9204 111.713 41.9204C114.056 41.9204 115.742 40.7546 115.742 39.1539C115.742 37.7643 114.725 36.9323 112.318 36.3621L109.91 35.8031C106.499 35.0091 104.916 33.4717 104.916 30.9769C104.916 27.888 107.709 25.7664 111.675 25.7664C115.6 25.7664 118.291 27.888 118.381 30.9769H115.575C115.407 29.1903 113.875 28.1119 111.635 28.1119C109.396 28.1119 107.864 29.203 107.864 30.7911C107.864 32.0568 108.842 32.8015 111.237 33.3717L113.283 33.856C117.094 34.7246 118.678 36.2001 118.678 38.8187C118.678 42.1681 115.91 44.2658 111.507 44.2658C107.387 44.2658 104.606 42.2174 104.426 38.9792L107.272 38.9794Z"
                        fill="white" />
                    <path id="Vector_7"
                        d="M124.678 27.8284V30.9173H127.253V33.0389H124.678V40.2346C124.678 41.3524 125.193 41.8734 126.326 41.8734C126.631 41.8682 126.937 41.8475 127.24 41.8114V43.9204C126.731 44.012 126.214 44.0535 125.696 44.0443C122.954 44.0443 121.885 43.0517 121.885 40.5203V33.0389H119.916V30.9173H121.885V27.8284H124.678Z"
                        fill="white" />
                    <path id="Vector_8"
                        d="M128.743 37.4443C128.743 33.3375 131.253 30.7568 135.166 30.7568C139.093 30.7568 141.591 33.3374 141.591 37.4443C141.591 41.5623 139.106 44.1317 135.166 44.1317C131.228 44.1317 128.743 41.5623 128.743 37.4443ZM138.758 37.4443C138.758 34.6271 137.419 32.9644 135.166 32.9644C132.914 32.9644 131.576 34.6398 131.576 37.4443C131.576 40.2727 132.914 41.9227 135.166 41.9227C137.419 41.9227 138.758 40.2727 138.758 37.4443H138.758Z"
                        fill="white" />
                    <path id="Vector_9"
                        d="M143.882 30.9129H146.533V33.1345H146.598C146.777 32.4407 147.199 31.8275 147.792 31.398C148.385 30.9686 149.114 30.749 149.855 30.7763C150.175 30.7752 150.495 30.8088 150.808 30.8763V33.3823C150.403 33.2632 149.981 33.2085 149.558 33.2204C149.155 33.2046 148.752 33.2732 148.378 33.4216C148.005 33.5699 147.669 33.7944 147.393 34.0797C147.118 34.365 146.91 34.7043 146.784 35.0743C146.658 35.4444 146.616 35.8364 146.662 36.2234V43.9653H143.882L143.882 30.9129Z"
                        fill="white" />
                    <path id="Vector_10"
                        d="M163.627 40.1361C163.253 42.5056 160.859 44.1317 157.795 44.1317C153.856 44.1317 151.41 41.5876 151.41 37.5062C151.41 33.4121 153.869 30.7568 157.678 30.7568C161.425 30.7568 163.782 33.2375 163.782 37.1951V38.113H154.216V38.2749C154.172 38.7553 154.235 39.2392 154.399 39.6945C154.564 40.1499 154.828 40.5662 155.172 40.9159C155.517 41.2655 155.935 41.5405 156.398 41.7226C156.861 41.9047 157.36 41.9897 157.86 41.972C158.516 42.0313 159.176 41.8847 159.739 41.5539C160.303 41.2231 160.74 40.7259 160.987 40.1361L163.627 40.1361ZM154.229 36.2405H161C161.025 35.8086 160.957 35.3764 160.801 34.971C160.644 34.5656 160.402 34.1957 160.09 33.8846C159.778 33.5736 159.403 33.328 158.988 33.1634C158.573 32.9987 158.127 32.9185 157.678 32.9278C157.226 32.9252 156.777 33.009 156.358 33.1744C155.939 33.3398 155.558 33.5836 155.238 33.8916C154.917 34.1996 154.663 34.5657 154.49 34.9689C154.317 35.372 154.228 35.8042 154.229 36.2405V36.2405Z"
                        fill="white" />
                </g>
            </g>
        </g>
        <g id="&#60;Group&#62;_4">
            <g id="Group_5">
                <path id="Vector_11"
                    d="M56.5814 12.5897C57.1642 12.5494 57.749 12.6343 58.2937 12.8382C58.8383 13.0421 59.3293 13.3599 59.731 13.7688C60.1328 14.1777 60.4354 14.6674 60.617 15.2027C60.7986 15.7379 60.8547 16.3054 60.7812 16.864C60.7812 19.6122 59.24 21.1919 56.5814 21.1919H53.3574V12.5897H56.5814ZM54.7437 19.9754H56.4265C56.843 19.9994 57.2598 19.9336 57.6465 19.7827C58.0332 19.6319 58.3802 19.3999 58.6622 19.1035C58.9441 18.8072 59.154 18.454 59.2764 18.0696C59.3989 17.6852 59.4309 17.2793 59.37 16.8816C59.4264 16.4853 59.3912 16.082 59.2669 15.7004C59.1426 15.3189 58.9322 14.9686 58.6509 14.6746C58.3696 14.3806 58.0242 14.1502 57.6397 13.9999C57.2551 13.8496 56.8409 13.7832 56.4265 13.8053H54.7437V19.9754Z"
                    fill="white" />
                <path id="Vector_12"
                    d="M62.3486 17.9409C62.3063 17.5143 62.3569 17.0839 62.4973 16.6772C62.6377 16.2706 62.8647 15.8967 63.1638 15.5795C63.4629 15.2624 63.8274 15.009 64.2341 14.8356C64.6407 14.6622 65.0805 14.5726 65.5251 14.5726C65.9698 14.5726 66.4096 14.6622 66.8162 14.8356C67.2229 15.009 67.5874 15.2624 67.8865 15.5795C68.1856 15.8967 68.4126 16.2706 68.553 16.6772C68.6934 17.0839 68.744 17.5143 68.7016 17.9409C68.7448 18.368 68.6948 18.799 68.5548 19.2063C68.4148 19.6136 68.1879 19.9882 67.8887 20.3059C67.5896 20.6237 67.2247 20.8776 66.8177 21.0514C66.4106 21.2252 65.9703 21.315 65.5251 21.315C65.0799 21.315 64.6397 21.2252 64.2326 21.0514C63.8256 20.8776 63.4607 20.6237 63.1616 20.3059C62.8624 19.9882 62.6355 19.6136 62.4955 19.2063C62.3555 18.799 62.3055 18.368 62.3486 17.9409ZM67.3343 17.9409C67.3343 16.5337 66.6784 15.7108 65.5273 15.7108C64.3718 15.7108 63.7218 16.5337 63.7218 17.9409C63.7218 19.3594 64.3719 20.1759 65.5273 20.1759C66.6785 20.1759 67.3343 19.3537 67.3343 17.9409H67.3343Z"
                    fill="white" />
                <path id="Vector_13"
                    d="M77.1448 21.19H75.7658L74.3737 16.4088H74.2685L72.8822 21.19H71.5163L69.6597 14.6982H71.008L72.2146 19.6518H72.3139L73.6988 14.6982H74.9741L76.3589 19.6518H76.4641L77.6648 14.6982H78.9941L77.1448 21.19Z"
                    fill="white" />
                <path id="Vector_14"
                    d="M80.5553 14.6957H81.835V15.7269H81.9343C82.1028 15.3565 82.387 15.046 82.7473 14.8387C83.1076 14.6314 83.5261 14.5376 83.9443 14.5704C84.2721 14.5466 84.6012 14.5942 84.9072 14.7097C85.2133 14.8252 85.4884 15.0055 85.7123 15.2374C85.9362 15.4693 86.1031 15.7468 86.2007 16.0493C86.2982 16.3517 86.3239 16.6715 86.2758 16.9849V21.1873H84.9464V17.3066C84.9464 16.2633 84.4761 15.7445 83.493 15.7445C83.2704 15.7345 83.0483 15.771 82.8418 15.8515C82.6353 15.932 82.4493 16.0546 82.2965 16.2109C82.1437 16.3671 82.0278 16.5533 81.9567 16.7568C81.8857 16.9603 81.861 17.1761 81.8846 17.3896V21.1874H80.5553L80.5553 14.6957Z"
                    fill="white" />
                <path id="Vector_15" d="M88.394 12.1641H89.7234V21.19H88.394V12.1641Z" fill="white" />
                <path id="Vector_16"
                    d="M91.5735 17.941C91.5311 17.5144 91.5818 17.0839 91.7222 16.6773C91.8626 16.2706 92.0897 15.8967 92.3888 15.5796C92.6879 15.2624 93.0525 15.009 93.4592 14.8356C93.8658 14.6622 94.3056 14.5726 94.7503 14.5726C95.195 14.5726 95.6348 14.6622 96.0415 14.8356C96.4482 15.009 96.8127 15.2624 97.1119 15.5796C97.411 15.8967 97.638 16.2706 97.7784 16.6773C97.9188 17.0839 97.9695 17.5144 97.9272 17.941C97.9703 18.3681 97.9202 18.7991 97.7802 19.2064C97.6401 19.6137 97.4132 19.9883 97.114 20.3061C96.8148 20.6238 96.45 20.8777 96.0429 21.0515C95.6358 21.2253 95.1955 21.315 94.7503 21.315C94.3051 21.315 93.8648 21.2253 93.4577 21.0515C93.0507 20.8777 92.6858 20.6238 92.3866 20.3061C92.0874 19.9883 91.8605 19.6137 91.7205 19.2064C91.5804 18.7991 91.5304 18.3681 91.5735 17.941ZM96.5591 17.941C96.5591 16.5339 95.9032 15.711 94.7521 15.711C93.5967 15.711 92.9467 16.5339 92.9467 17.941C92.9467 19.3595 93.5967 20.176 94.7521 20.176C95.9032 20.176 96.5591 19.3538 96.5591 17.941H96.5591Z"
                    fill="white" />
                <path id="Vector_17"
                    d="M99.3254 19.3538C99.3254 18.1852 100.228 17.5116 101.831 17.4158L103.655 17.3145V16.7541C103.655 16.0685 103.185 15.6813 102.276 15.6813C101.534 15.6813 101.02 15.9439 100.872 16.4029H99.5855C99.7213 15.2878 100.81 14.5726 102.338 14.5726C104.026 14.5726 104.979 15.3828 104.979 16.7541V21.1897H103.699V20.2774H103.594C103.38 20.6046 103.081 20.8714 102.725 21.0504C102.37 21.2295 101.971 21.3145 101.571 21.2966C101.288 21.325 101.002 21.2959 100.732 21.2113C100.461 21.1266 100.212 20.9883 100.001 20.8053C99.7893 20.6222 99.6199 20.3985 99.5036 20.1485C99.3872 19.8985 99.3266 19.6278 99.3254 19.3538ZM103.655 18.7991V18.2563L102.01 18.3577C101.083 18.4175 100.662 18.7216 100.662 19.2939C100.662 19.8782 101.188 20.2182 101.911 20.2182C102.123 20.2389 102.337 20.2183 102.54 20.1576C102.744 20.0969 102.933 19.9974 103.095 19.865C103.258 19.7326 103.391 19.57 103.488 19.3869C103.584 19.2037 103.641 19.0038 103.655 18.7991Z"
                    fill="white" />
                <path id="Vector_18"
                    d="M106.724 17.9413C106.724 15.89 107.818 14.5906 109.52 14.5906C109.941 14.5719 110.359 14.669 110.724 14.8707C111.09 15.0724 111.389 15.3703 111.585 15.7295H111.685V12.1641H113.014V21.19H111.74V20.1643H111.635C111.423 20.5211 111.114 20.8153 110.741 21.0149C110.368 21.2146 109.946 21.3121 109.52 21.2969C107.806 21.297 106.724 19.9975 106.724 17.9413ZM108.097 17.9413C108.097 19.3182 108.771 20.1468 109.897 20.1468C111.017 20.1468 111.71 19.3063 111.71 17.9469C111.71 16.594 111.01 15.7415 109.897 15.7415C108.778 15.7415 108.097 16.5757 108.097 17.9413H108.097Z"
                    fill="white" />
                <path id="Vector_19"
                    d="M118.515 17.9409C118.472 17.5143 118.523 17.0839 118.663 16.6772C118.804 16.2706 119.031 15.8967 119.33 15.5795C119.629 15.2624 119.993 15.009 120.4 14.8356C120.807 14.6622 121.246 14.5726 121.691 14.5726C122.136 14.5726 122.576 14.6622 122.982 14.8356C123.389 15.009 123.753 15.2624 124.053 15.5795C124.352 15.8967 124.579 16.2706 124.719 16.6772C124.859 17.0839 124.91 17.5143 124.868 17.9409C124.911 18.368 124.861 18.799 124.721 19.2063C124.581 19.6136 124.354 19.9882 124.055 20.3059C123.756 20.6237 123.391 20.8776 122.984 21.0514C122.577 21.2252 122.136 21.315 121.691 21.315C121.246 21.315 120.806 21.2252 120.399 21.0514C119.992 20.8776 119.627 20.6237 119.328 20.3059C119.028 19.9882 118.802 19.6136 118.662 19.2063C118.522 18.799 118.472 18.368 118.515 17.9409ZM123.5 17.9409C123.5 16.5337 122.844 15.7108 121.693 15.7108C120.538 15.7108 119.888 16.5337 119.888 17.9409C119.888 19.3594 120.538 20.1759 121.693 20.1759C122.844 20.1759 123.5 19.3537 123.5 17.9409Z"
                    fill="white" />
                <path id="Vector_20"
                    d="M126.653 14.6957H127.933V15.7269H128.032C128.201 15.3565 128.485 15.046 128.845 14.8387C129.206 14.6314 129.624 14.5376 130.042 14.5704C130.37 14.5466 130.699 14.5942 131.005 14.7097C131.311 14.8252 131.586 15.0055 131.81 15.2374C132.034 15.4693 132.201 15.7468 132.299 16.0493C132.396 16.3517 132.422 16.6715 132.374 16.9849V21.1873H131.044V17.3066C131.044 16.2633 130.574 15.7445 129.591 15.7445C129.368 15.7345 129.146 15.771 128.94 15.8515C128.733 15.932 128.547 16.0546 128.395 16.2109C128.242 16.3671 128.126 16.5533 128.055 16.7568C127.984 16.9603 127.959 17.1761 127.983 17.3896V21.1874H126.653V14.6957Z"
                    fill="white" />
                <path id="Vector_21"
                    d="M139.886 13.0824V14.7282H141.345V15.8073H139.886V19.1454C139.886 19.8254 140.176 20.1232 140.838 20.1232C141.008 20.1227 141.177 20.1128 141.345 20.0936V21.1608C141.106 21.202 140.864 21.2239 140.622 21.2263C139.144 21.2263 138.555 20.725 138.555 19.4735V15.8073H137.486V14.7281H138.555V13.0824H139.886Z"
                    fill="white" />
                <path id="Vector_22"
                    d="M143.158 12.1641H144.476V15.7415H144.581C144.758 15.3676 145.05 15.0554 145.417 14.8473C145.785 14.6392 146.21 14.5454 146.635 14.5786C146.961 14.5615 147.287 14.6139 147.589 14.7322C147.892 14.8505 148.164 15.0317 148.385 15.2628C148.607 15.494 148.773 15.7694 148.871 16.0695C148.97 16.3695 148.998 16.6868 148.955 16.9987V21.19H147.624V17.3148C147.624 16.2779 147.123 15.7527 146.184 15.7527C145.955 15.7347 145.725 15.7649 145.51 15.8414C145.295 15.9179 145.1 16.0388 144.939 16.1955C144.777 16.3523 144.653 16.5412 144.575 16.749C144.497 16.9568 144.467 17.1785 144.488 17.3985V21.1899H143.158L143.158 12.1641Z"
                    fill="white" />
                <path id="Vector_23"
                    d="M156.705 19.437C156.525 20.0303 156.133 20.5435 155.6 20.8868C155.066 21.2301 154.424 21.3817 153.787 21.3151C153.343 21.3263 152.902 21.2444 152.494 21.075C152.087 20.9056 151.722 20.6527 151.426 20.3339C151.13 20.015 150.909 19.638 150.78 19.2288C150.65 18.8196 150.614 18.3881 150.675 17.9643C150.616 17.5392 150.652 17.1068 150.782 16.6964C150.911 16.286 151.13 15.9072 151.425 15.5856C151.719 15.264 152.082 15.0071 152.489 14.8324C152.895 14.6576 153.336 14.5691 153.781 14.5727C155.655 14.5727 156.786 15.8068 156.786 17.8453V18.2924H152.029V18.3642C152.008 18.6024 152.039 18.8422 152.12 19.0682C152.201 19.2941 152.33 19.5013 152.499 19.6764C152.668 19.8515 152.873 19.9907 153.101 20.085C153.329 20.1792 153.575 20.2266 153.823 20.2239C154.141 20.2607 154.463 20.2055 154.749 20.0654C155.034 19.9252 155.27 19.7065 155.426 19.4369L156.705 19.437ZM152.029 17.3448H155.431C155.448 17.127 155.417 16.9081 155.341 16.7024C155.265 16.4966 155.145 16.3085 154.989 16.1501C154.833 15.9918 154.644 15.8666 154.435 15.7827C154.225 15.6989 154 15.6581 153.773 15.6631C153.543 15.6604 153.315 15.702 153.102 15.7855C152.889 15.869 152.696 15.9928 152.533 16.1495C152.371 16.3063 152.242 16.4928 152.156 16.6981C152.069 16.9034 152.026 17.1233 152.029 17.3448H152.029Z"
                    fill="white" />
            </g>
        </g>
    </g>
</svg>