<svg width="110" height="153" fill="none" xmlns="http://www.w3.org/2000/svg"><path d="M0 0h98.267C104.747 0 110 5.253 110 11.733v129.434c0 6.48-5.253 11.733-11.733 11.733H0V0Z" fill="#fff"/><path stroke="#DAE1F3" stroke-width="2.2" stroke-linecap="round" d="M17.233 74.167H91.3M17.233 82.967H91.3M17.233 91.767H91.3M17.233 100.567H91.3M17.233 109.367H91.3"/><path fill-rule="evenodd" clip-rule="evenodd" d="M68.933 17.7a1.1 1.1 0 0 1 1.1-1.1H91.3a1.1 1.1 0 0 1 0 2.2H70.033a1.1 1.1 0 0 1-1.1-1.1Z" fill="#DAE1F3"/><path stroke="#DAE1F3" stroke-width="2.2" stroke-linecap="round" d="M17.233 118.167h35.934"/><path fill-rule="evenodd" clip-rule="evenodd" d="M68.933 26.5a1.1 1.1 0 0 1 1.1-1.1H91.3a1.1 1.1 0 0 1 0 2.2H70.033a1.1 1.1 0 0 1-1.1-1.1Z" fill="#DAE1F3"/><path stroke="#DAE1F3" stroke-width="2.2" stroke-linecap="round" d="M17.233 126.967h35.934M17.233 135.767h35.934"/><path fill-rule="evenodd" clip-rule="evenodd" d="M68.933 35.3a1.1 1.1 0 0 1 1.1-1.1H91.3a1.1 1.1 0 0 1 0 2.2H70.033a1.1 1.1 0 0 1-1.1-1.1Z" fill="#DAE1F3"/><rect x="16.133" y="16.6" width="41.067" height="45.467" rx="2.933" fill="#F5FAFC"/><path d="M25.667 53.267s-2.2 0-2.2-2.2 2.2-8.8 13.2-8.8 13.2 6.6 13.2 8.8c0 2.2-2.2 2.2-2.2 2.2h-22Zm11-13.2a6.6 6.6 0 1 0 0-13.2 6.6 6.6 0 0 0 0 13.2Z" fill="#DAE1F3"/></svg>