<svg width="179" height="55" viewBox="0 0 179 55" fill="none" xmlns="http://www.w3.org/2000/svg">
    <path
        d="M172.37 54.6666H6.62963C2.98499 54.6666 0 51.6274 0 47.9166V7.41663C0 3.70582 2.98499 0.66663 6.62963 0.66663H172.37C176.015 0.66663 179 3.70582 179 7.41663V47.9166C179 51.6274 176.015 54.6666 172.37 54.6666Z"
        fill="black" />
    <path
        d="M172.37 1.74832C175.44 1.74832 177.938 4.29138 177.938 7.41663V47.9166C177.938 51.0419 175.44 53.5849 172.37 53.5849H6.62963C3.56011 53.5849 1.0624 51.0419 1.0624 47.9166V7.41663C1.0624 4.29138 3.56011 1.74832 6.62963 1.74832H172.37ZM172.37 0.66663H6.62963C2.98499 0.66663 0 3.70582 0 7.41663V47.9166C0 51.6274 2.98499 54.6666 6.62963 54.6666H172.37C176.015 54.6666 179 51.6274 179 47.9166V7.41663C179 3.70582 176.015 0.66663 172.37 0.66663Z"
        fill="#A6A6A6" />
    <path
        d="M62.8719 14.4956C62.8719 15.6229 62.5405 16.5257 61.8874 17.199C61.1366 17.9972 60.1588 18.3988 58.9605 18.3988C57.8152 18.3988 56.8373 17.9905 56.0351 17.1855C55.2313 16.3688 54.8302 15.3664 54.8302 14.1666C54.8302 12.9668 55.2313 11.9644 56.0351 11.1544C56.8373 10.3427 57.8152 9.93433 58.9605 9.93433C59.5306 9.93433 60.0742 10.0541 60.593 10.2769C61.1101 10.5013 61.5311 10.8051 61.8361 11.1797L61.1433 11.8918C60.6112 11.2523 59.887 10.9367 58.9605 10.9367C58.1251 10.9367 57.4008 11.2337 56.7859 11.8328C56.1777 12.4335 55.8727 13.2115 55.8727 14.1666C55.8727 15.1217 56.1777 15.9064 56.7859 16.5071C57.4008 17.0994 58.1251 17.4032 58.9605 17.4032C59.8472 17.4032 60.593 17.0994 61.1814 16.5004C61.5692 16.1038 61.7897 15.5571 61.8477 14.8585H58.9605V13.8831H62.8123C62.8587 14.094 62.8719 14.2982 62.8719 14.4956Z"
        fill="white" stroke="white" stroke-width="0.16" stroke-miterlimit="10" />
    <path
        d="M68.983 11.1139H65.3649V13.6789H68.6266V14.6543H65.3649V17.2193H68.983V18.2132H64.3406V10.12H68.983V11.1139Z"
        fill="white" stroke="white" stroke-width="0.16" stroke-miterlimit="10" />
    <path d="M73.2958 18.2132H72.2715V11.1139H70.0522V10.12H75.5167V11.1139H73.2958V18.2132Z"
        fill="white" stroke="white" stroke-width="0.16" stroke-miterlimit="10" />
    <path d="M79.4709 18.2132V10.12H80.4936V18.2132H79.4709Z" fill="white" stroke="white"
        stroke-width="0.16" stroke-miterlimit="10" />
    <path d="M85.0269 18.2132H84.0109V11.1139H81.7833V10.12H87.2544V11.1139H85.0269V18.2132Z"
        fill="white" stroke="white" stroke-width="0.16" stroke-miterlimit="10" />
    <path
        d="M97.5995 17.172C96.8155 17.9905 95.8443 18.3988 94.6858 18.3988C93.5206 18.3988 92.5494 17.9905 91.7654 17.172C90.9831 16.3553 90.5936 15.3529 90.5936 14.1666C90.5936 12.9803 90.9831 11.9779 91.7654 11.1611C92.5494 10.3427 93.5206 9.93433 94.6858 9.93433C95.8377 9.93433 96.8089 10.3427 97.5929 11.1679C98.3818 11.9914 98.7713 12.987 98.7713 14.1666C98.7713 15.3529 98.3818 16.3553 97.5995 17.172ZM92.5229 16.4936C93.1129 17.0994 93.8305 17.4032 94.6858 17.4032C95.5344 17.4032 96.2586 17.0994 96.8421 16.4936C97.4304 15.8878 97.7288 15.1099 97.7288 14.1666C97.7288 13.2233 97.4304 12.4453 96.8421 11.8395C96.2586 11.2337 95.5344 10.93 94.6858 10.93C93.8305 10.93 93.1129 11.2337 92.5229 11.8395C91.9345 12.4453 91.6361 13.2233 91.6361 14.1666C91.6361 15.1099 91.9345 15.8878 92.5229 16.4936Z"
        fill="white" stroke="white" stroke-width="0.16" stroke-miterlimit="10" />
    <path
        d="M100.208 18.2132V10.12H101.452L105.317 16.4144H105.361L105.317 14.8585V10.12H106.339V18.2132H105.272L101.224 11.6084H101.18L101.224 13.171V18.2132H100.208Z"
        fill="white" stroke="white" stroke-width="0.16" stroke-miterlimit="10" />
    <path
        d="M90.3417 30.0325C87.2275 30.0325 84.6833 32.4456 84.6833 35.7751C84.6833 39.0775 87.2275 41.516 90.3417 41.516C93.4626 41.516 96.0067 39.0775 96.0067 35.7751C96.0067 32.4456 93.4626 30.0325 90.3417 30.0325ZM90.3417 39.2547C88.6329 39.2547 87.1628 37.8186 87.1628 35.7751C87.1628 33.7045 88.6329 32.2938 90.3417 32.2938C92.0505 32.2938 93.5273 33.7045 93.5273 35.7751C93.5273 37.8186 92.0505 39.2547 90.3417 39.2547ZM77.9957 30.0325C74.8748 30.0325 72.3373 32.4456 72.3373 35.7751C72.3373 39.0775 74.8748 41.516 77.9957 41.516C81.1149 41.516 83.6541 39.0775 83.6541 35.7751C83.6541 32.4456 81.1149 30.0325 77.9957 30.0325ZM77.9957 39.2547C76.2853 39.2547 74.8102 37.8186 74.8102 35.7751C74.8102 33.7045 76.2853 32.2938 77.9957 32.2938C79.7045 32.2938 81.1746 33.7045 81.1746 35.7751C81.1746 37.8186 79.7045 39.2547 77.9957 39.2547ZM63.3044 31.7926V34.2327H69.0275C68.8601 35.5962 68.4126 36.5986 67.7264 37.2972C66.8911 38.141 65.59 39.0775 63.3044 39.0775C59.7825 39.0775 57.0245 36.1835 57.0245 32.5975C57.0245 29.0116 59.7825 26.1175 63.3044 26.1175C65.2088 26.1175 66.5944 26.8752 67.617 27.8573L69.3059 26.1378C67.8756 24.7473 65.9729 23.6791 63.3044 23.6791C58.4748 23.6791 54.4158 27.6801 54.4158 32.5975C54.4158 37.5149 58.4748 41.516 63.3044 41.516C65.9149 41.516 67.8756 40.6452 69.417 39.0117C70.9965 37.4035 71.4887 35.1423 71.4887 33.3164C71.4887 32.7494 71.4423 32.228 71.3594 31.7926H63.3044ZM123.379 33.6843C122.913 32.4001 121.476 30.0325 118.549 30.0325C115.649 30.0325 113.234 32.3596 113.234 35.7751C113.234 38.9915 115.624 41.516 118.828 41.516C121.418 41.516 122.913 39.9078 123.528 38.9712L121.605 37.6668C120.964 38.6219 120.091 39.2547 118.828 39.2547C117.573 39.2547 116.673 38.6691 116.096 37.5149L123.639 34.3373L123.379 33.6843ZM115.688 35.5962C115.624 33.3822 117.377 32.2482 118.634 32.2482C119.618 32.2482 120.453 32.7494 120.732 33.4666L115.688 35.5962ZM109.558 41.1666H112.037V24.2916H109.558V41.1666ZM105.497 31.3116H105.414C104.857 30.64 103.795 30.0325 102.449 30.0325C99.6249 30.0325 97.0426 32.557 97.0426 35.7936C97.0426 39.0117 99.6249 41.516 102.449 41.516C103.795 41.516 104.857 40.9034 105.414 40.2115H105.497V41.035C105.497 43.2305 104.345 44.41 102.487 44.41C100.972 44.41 100.033 43.2963 99.6448 42.3597L97.4885 43.276C98.11 44.7981 99.7558 46.6713 102.487 46.6713C105.394 46.6713 107.847 44.9298 107.847 40.6925V30.3818H105.497V31.3116ZM102.661 39.2547C100.952 39.2547 99.5221 37.7984 99.5221 35.7936C99.5221 33.7703 100.952 32.2938 102.661 32.2938C104.345 32.2938 105.673 33.7703 105.673 35.7936C105.673 37.7984 104.345 39.2547 102.661 39.2547ZM134.987 24.2916H129.057V41.1666H131.53V34.7727H134.987C137.734 34.7727 140.427 32.7494 140.427 29.5313C140.427 26.315 137.727 24.2916 134.987 24.2916ZM135.052 32.4254H131.53V26.639H135.052C136.898 26.639 137.952 28.1999 137.952 29.5313C137.952 30.8375 136.898 32.4254 135.052 32.4254ZM150.338 30.0005C148.552 30.0005 146.694 30.8037 145.929 32.584L148.124 33.5206C148.596 32.584 149.465 32.2803 150.383 32.2803C151.666 32.2803 152.967 33.065 152.987 34.4504V34.6276C152.539 34.3643 151.581 33.9745 150.403 33.9745C148.039 33.9745 145.631 35.2992 145.631 37.7714C145.631 40.0326 147.567 41.489 149.743 41.489C151.407 41.489 152.325 40.7245 152.902 39.8352H152.987V41.1396H155.375V34.6664C155.375 31.6745 153.181 30.0005 150.338 30.0005ZM150.04 39.248C149.231 39.248 148.104 38.8396 148.104 37.8186C148.104 36.5125 149.509 36.0113 150.726 36.0113C151.815 36.0113 152.325 36.256 152.987 36.5783C152.793 38.141 151.472 39.248 150.04 39.248ZM164.076 30.37L161.234 37.6853H161.149L158.211 30.37H155.544L159.959 40.5929L157.44 46.2815H160.024L166.828 30.37H164.076ZM141.786 41.1666H144.265V24.2916H141.786V41.1666Z"
        fill="white" />
    <path
        d="M27.6727 27.3906L13.7212 42.7652C13.8781 43.3501 14.1602 43.8895 14.5458 44.342C14.9315 44.7945 15.4105 45.1483 15.9462 45.3761C16.4819 45.604 17.06 45.6999 17.6364 45.6566C18.2128 45.6133 18.7721 45.4318 19.2715 45.1261H19.3128L35.0134 35.7116L27.6727 27.3906Z"
        fill="#EA4335" />
    <path
        d="M41.7825 24.7691L35.0065 20.6919L27.3766 27.7383L35.0409 35.7044L41.7825 31.6634C42.378 31.3332 42.8764 30.8383 43.2241 30.2321C43.5718 29.6259 43.7555 28.9314 43.7555 28.2235C43.7555 27.5156 43.5718 26.8211 43.2241 26.2149C42.8764 25.6087 42.378 25.1138 41.7825 24.7836V24.7691Z"
        fill="#FBBC04" />
    <path
        d="M13.7215 13.5581C13.6351 13.8859 13.591 14.2245 13.5907 14.5647V41.7292C13.5943 42.0692 13.6383 42.4073 13.7215 42.7358L28.1826 27.7595L13.7215 13.5581Z"
        fill="#4285F4" />
    <path
        d="M27.7759 28.1728L34.9927 20.6774L19.3128 11.2629C18.7226 10.8963 18.0494 10.7036 17.364 10.7053C16.5386 10.7007 15.7348 10.9818 15.0765 11.5053C14.4181 12.0289 13.9419 12.7656 13.7212 13.602L27.7759 28.1728Z"
        fill="#34A853" />
</svg>