<svg width="248" height="188" fill="none" xmlns="http://www.w3.org/2000/svg"><path fill-rule="evenodd" clip-rule="evenodd" d="M4.309 62.92a4.88 4.88 0 0 0 .96 3.139l.003.007C.84 69.906-.306 74.78 1.038 78.096c1.204 2.968 4.203 4.385 7.64 3.614.15-.033.297-.068.443-.106-.751 1.064-1.36 2.144-1.762 3.213-1.11 2.944-.428 5.074.339 6.344 1.206 1.999 2.732 2.549 3.798 2.658 1.894.196 3.69-.78 5.52-2.35-.428 3.177-.046 7.327 3.304 9.019.782.394 1.5.536 2.13.536.679 0 1.254-.165 1.693-.357 1.764-.771 3.058-2.675 3.956-5.821.79-2.74 1.599-5.215 3.019-7.034 2.777 3.776 8.688 6.239 12.5 6.017l.312-.018c3.413-.19 8.57-.478 9.96-5.611a2.251 2.251 0 0 0-4.344-1.176c-.465 1.719-2.11 2.085-5.867 2.294l-.324.018c-3.15.19-8.833-2.896-9.265-5.576a2.252 2.252 0 0 0-3.425-1.543c-4.414 2.793-5.846 7.76-6.892 11.386v.002c-.59 2.063-1.18 2.72-1.373 2.89-.016-.004-.033-.013-.053-.023-1.241-.626-1.13-4.08-.512-6.09 1.069-3.466 2.464-6.2 6.11-9.11a2.25 2.25 0 0 0-2.386-3.783c-2.638 1.28-5.183 4.029-7.643 6.688h-.001c-1.705 1.843-4.873 5.248-5.961 5.169l-.01-.008c-.036-.03-.186-.153-.395-.5-.137-.227-.551-.914.02-2.431 1.875-4.975 11.046-11.37 14.06-12.325a2.254 2.254 0 0 0 1.244-.977 2.662 2.662 0 0 0-.004-2.78 2.246 2.246 0 0 0-2.356-1.032c-4.207.834-7.336 2.869-10.098 4.665l-.005.004-.002.001c-2.233 1.453-4.34 2.824-6.717 3.358-1.284.29-2.121-.018-2.483-.913-.678-1.671.228-5.112 4.193-7.864 2.152.283 4.58-.686 6.948-1.647 1.069-.435 2.176-.884 2.865-1.022.611-.122 1.232-.256 1.859-.391l.05-.011c2.61-.564 5.31-1.147 7.488-.812a2.25 2.25 0 1 0 .685-4.447c-2.991-.464-6.096.206-9.1.855l-.023.005c-.62.134-1.234.267-1.84.387-1.11.222-2.358.729-3.68 1.266l-.023.01c-1.304.528-3.946 1.6-4.716 1.347-.035-.016-.073-.024-.108-.038-.406-.182-1.017-.525-1-.934.054-1.305 3.035-4.961 11.91-7.93 20.25-6.77 31.694-1.418 35.674 1.196 7.107 4.67 11.503 12.923 15.754 20.904.75 1.41 1.49 2.799 2.233 4.145l.569 1.033c-5.368 1.7-9.36 4.475-13.846 7.846-.28.21-.612.452-.98.72l-.18.13c-4.714 3.425-8.977 6.77-9.364 10.083-.343 2.918 3.15 12.791 4.908 17.517-2.385 3.168-3.112 5.436-3.35 10.464v.004c-.182 3.888-.541 11.51 5.022 15.751-1.898 3.207-3.08 8.004-2.135 11.858.412 1.677 1.205 3.07 2.314 4.106-.501.49-1 1.01-1.452 1.611-2.71 3.596-4.28 7.12-4.801 10.773a2.25 2.25 0 1 0 4.455.636c.413-2.883 1.7-5.728 3.938-8.7.408-.539.964-1.068 1.554-1.628.554-.526 1.127-1.071 1.659-1.7a2.25 2.25 0 0 0-1.072-3.609c-.74-.221-1.775-.728-2.226-2.564-.774-3.154.794-8.033 2.62-9.813a2.248 2.248 0 0 0-.623-3.652c-4.36-2.02-5.054-6.602-4.76-12.861.242-5.092.86-6.204 4.232-10.165a66.542 66.542 0 0 1 13.924-12.174 68.774 68.774 0 0 1 12.584-6.122 2.27 2.27 0 0 0 .478-.083c.388.129 1.579.873 3.33 3.15 3.246 4.2 5.53 10.106 6.603 13.252 1.509 4.421 2.849 10.028 3.854 15.249-.728 1.257-1.492 2.506-2.243 3.735l-.01.016c-2.45 4.011-4.765 7.8-5.384 10.979-.601 3.079.164 6.522 1.947 8.771 1.194 1.505 2.795 2.37 4.51 2.433.067.004.135.004.202.004 1.505 0 2.916-.627 4.094-1.82 2.262-2.294 3.471-6.476 3.232-11.188-.138-2.736-.715-7.177-1.61-12.098a123.569 123.569 0 0 1 13.16-17.934c1.365-1.517 3.205-3.807 5.335-6.458 2.903-3.613 6.324-7.868 9.268-11.021.836 3.323 2.223 6.433 3.615 8.078.855 1.01 1.784 1.555 2.763 1.62 2.311.131 3.483-1.933 5.376-7.671-.235 6.398.541 13.09 2.161 18.452a179.74 179.74 0 0 1 1.202 4.22l.014.05c.65 2.356 1.323 4.793 2.144 7.156.27.774.598 1.521.949 2.249-2.894-1.102-6.129-1.661-8.944-.913-2.876.761-4.94 2.741-5.968 5.726-2.434 7.07 1.841 15.522 6.32 22.186-.661.125-1.315.416-1.942.923-1.986 1.623-2.234 4.725-2.205 6.43.045 2.844 1.199 5.078 2.316 7.237.184.356.37.717.553 1.083 3.173 6.366 3.463 8.815 3.354 9.709a2.25 2.25 0 1 0 4.466.547c.316-2.584-.854-6.367-3.793-12.264-.193-.386-.389-.766-.583-1.142-.959-1.853-1.786-3.454-1.815-5.245-.028-1.646.342-2.677.546-2.865.675-.067 2.868 1.659 3.586 2.234.436.35.834.667 1.171.908a2.25 2.25 0 0 0 3.096-3.197l-.298-.392c-4.253-5.578-13.102-17.186-10.519-24.688.539-1.564 1.449-2.466 2.864-2.841 3.502-.93 8.883 1.593 11.264 3.689a2.248 2.248 0 0 0 2.667.227 2.248 2.248 0 0 0 .997-2.484c-.468-1.793-1.338-3.453-2.179-5.058l-.006-.012c-.643-1.225-1.25-2.382-1.647-3.525-.773-2.224-1.426-4.589-2.057-6.875-.404-1.466-.808-2.93-1.246-4.374-1.525-5.051-2.239-11.434-1.958-17.511a2.251 2.251 0 0 0-2.144-2.352 2.272 2.272 0 0 0-1.72.704c.232-.735.472-1.502.73-2.336l.108-.35c.309-.997.621-2 .927-2.951.32.778.647 1.585.961 2.362 3.603 8.911 5.212 12.302 7.841 12.552.931.09 3.781.361 11.245-5.246 3.199-2.405 13.933-11.598 20.292-19.04a2.25 2.25 0 0 0-3.421-2.923c-6.046 7.075-16.588 16.122-19.574 18.366-4.621 3.471-6.855 4.194-7.706 4.335-1.156-1.447-3.31-6.773-4.505-9.73-1.621-4.008-2.661-6.53-3.584-7.771a2.251 2.251 0 0 0-3.82.34c-.952 1.912-1.977 5.223-3.062 8.729l-.012.039c-.741 2.392-1.75 5.648-2.554 7.622-1.029-1.894-2.231-5.313-2.502-8.461a2.268 2.268 0 0 0-.04-.62c-.028-.602-.022-1.19.034-1.75.419-4.182 1.819-9.003 2.865-12.174a106.404 106.404 0 0 0 19.511-3.007c1.961-.495 4.162-.968 6.494-1.468l.01-.002c4.129-.886 8.399-1.803 11.46-2.898 2.066-.74 3.888-1.618 5.355-2.324l.01-.005c.782-.377 1.68-.81 2.38-1.09 1.102 2.25 2.044 5.3 2.828 7.84.236.765.462 1.496.68 2.169.963 2.988 3.328 5.153 5.415 7.063h.001c.836.765 1.625 1.487 2.283 2.215 2.291 2.539 4.462 4.736 6.56 6.859l.025.025.005.005c2.642 2.673 5.137 5.197 7.869 8.36 3.534 4.085 17.302 20.448 21.206 25.159a614.57 614.57 0 0 0 1.92 2.301c3.02 3.607 5.873 7.015 8.463 10.816a2.247 2.247 0 0 0 3.126.592 2.25 2.25 0 0 0 .592-3.126c-2.715-3.985-5.774-7.639-8.732-11.172l-.047-.056c-.619-.739-1.24-1.48-1.86-2.228-3.913-4.721-17.72-21.13-21.266-25.23-2.832-3.277-5.498-5.976-8.077-8.585-2.072-2.096-4.214-4.264-6.448-6.738-.8-.885-1.704-1.712-2.577-2.511l-.006-.006c-1.838-1.682-3.573-3.27-4.172-5.127-.213-.658-.433-1.37-.662-2.114l-.003-.01c-1.086-3.518-2.317-7.504-4.065-10.251a2.235 2.235 0 0 0-.916-.801l-1.221-7.61c-.021-.186-.8-6.618-1.465-9.926-.175-.891-.457-1.853-.756-2.873l-.001-.003c-.442-1.51-.986-3.369-.94-4.491.297-.035.756-.02 1.115-.005.286.01.559.02.843.018 4.324-.041 9.664-.583 12.645-4.45 1.644-2.13 2.253-4.67 1.759-7.344-.575-3.111-2.712-6.197-5.443-7.863-2.95-1.824-7.066-2.27-11.598-2.083a32.897 32.897 0 0 0-2.42-5.143c-2.526-4.264-6.822-8.78-11.889-8.116a3.944 3.944 0 0 1-1.211-.631c-6.519-5.017-13.663-2.921-20.789-.831-3.533 1.036-7.062 2.071-10.508 2.237-1.489.07-2.268 2.188-.798 2.958.456.241.921.463 1.385.685l.141.067c-.612.253-1.219.505-1.818.755l-.018.007c-1.592.664-3.162 1.318-4.708 1.918-4.141 1.613-17.423 8.483-17.986 8.775a2.25 2.25 0 0 0 .951 4.246l19.576.719c.127 2.638.339 7.126.428 9.303.102 2.63.272 5.229.437 7.744.13 1.974.26 3.952.359 5.969.333 7.076 2.822 27.177 2.928 28.03a.408.408 0 0 0 .01.05.586.586 0 0 1 .01.042l-.053.092a.973.973 0 0 0-.094.186c-1.106 3.175-3.042 9.299-3.577 14.63a15.185 15.185 0 0 0-.062 1.673c-3.558 3.298-8.02 8.85-11.993 13.795l-.058.071c-2.063 2.568-3.845 4.785-5.129 6.211a128.298 128.298 0 0 0-11.093 14.534c-.875-3.922-1.907-7.821-3.04-11.141-1.164-3.41-3.66-9.835-7.298-14.545-2.303-2.995-4.442-4.628-6.388-4.887-3.348-5.005-6.553-10.82-9.4-15.998l-.633-1.153a298.537 298.537 0 0 1-2.203-4.087l-.002-.004C71.806 67.072 66.925 57.91 58.86 52.61c-5.625-3.696-18.245-8.832-39.572-1.703-9.061 3.03-14.8 7.634-14.98 12.014Zm172.405 4.43c-2.78.996-6.902 1.88-10.888 2.736h.001c-2.271.487-4.619.99-6.658 1.506a101.994 101.994 0 0 1-17.675 2.812c-.454-3.708-2.519-20.79-2.81-26.966a372.815 372.815 0 0 0-.363-6.048l-.003-.044c-.162-2.47-.33-5.024-.428-7.583-.132-3.211-.529-11.407-.529-11.407a2.252 2.252 0 0 0-2.165-2.14l-12.963-.476c3.783-1.893 7.925-3.911 9.821-4.65a207.008 207.008 0 0 0 4.827-1.966c2.097-.875 4.215-1.754 6.34-2.54a40.415 40.415 0 0 0 10.458 1.58c3.475.054 8.185-.078 11.69-1.798.181.114.362.228.539.35a35.984 35.984 0 0 0 7.661 18.337c1.004 1.266 3.105-.108 2.652-1.545-.581-1.845-.103-3.642.507-5.408 6.039-.804 12.317-1.204 15.572.808 1.674 1.02 3.025 2.966 3.372 4.846.259 1.4-.042 2.672-.896 3.777-1.799 2.333-5.819 2.668-9.12 2.699-.21 0-.422-.007-.641-.015-1.007-.037-2.259-.082-3.498.519a3.353 3.353 0 0 1-.517.217l-.009.003c-1.225.39-1.883 1.416-1.716 2.675.009.067.023.18-.008.496-.193 1.969.459 4.196 1.09 6.35l.001.002c.269.918.523 1.786.661 2.484.62 3.09 1.388 9.387 1.422 9.666l.001.009 1.222 7.627a62.51 62.51 0 0 0-2.021.942c-1.444.696-3.081 1.484-4.929 2.146Zm-77.246 85.888c-.955-1.205-1.4-3.356-1.057-5.115.434-2.225 2.384-5.518 4.377-8.787.375 2.573.618 4.787.697 6.354.195 3.831-.835 6.677-1.941 7.798-.469.476-.786.479-.912.481h-.014c-.389-.014-.777-.26-1.15-.731Zm-44.422-51.495c.138-1.078 2.675-3.421 7.537-6.952.464-.337.878-.638 1.219-.893 4.512-3.39 8.223-5.95 13.373-7.408 2.054 3.69 4.252 7.518 6.549 11.068a73.32 73.32 0 0 0-11.36 5.734 71.188 71.188 0 0 0-13.534 11.49c-2.045-5.741-3.878-11.7-3.784-13.039Zm85.253-84.348c.166-1.133.496-2.235.982-3.276a2.25 2.25 0 1 1 4.077 1.905 7.261 7.261 0 0 0-.606 2.02 2.251 2.251 0 0 1-4.454-.648l.001-.001Zm8.037-3.781a2.25 2.25 0 0 0-2.235 2.265 8.704 8.704 0 0 1-.42 2.738 2.25 2.25 0 0 0 4.283 1.38c.432-1.341.646-2.737.637-4.148-.008-1.243-1.054-2.235-2.265-2.235Zm10.36 15.45c-.374.886-2.633 2.79-3.678 3.018a2.25 2.25 0 0 0-3.046 3.288c.731.81 1.725 1.234 2.858 1.234.286 0 .582-.027.884-.082 2.832-.514 6.308-3.622 7.168-5.806a2.25 2.25 0 0 0-4.186-1.651Zm25.536-1.973c-.639.257-1.242.499-1.699.602a2.25 2.25 0 0 0 .987 4.39c.811-.182 1.614-.504 2.39-.816l.003-.001c.914-.368 2.051-.825 2.608-.74a2.253 2.253 0 0 0 2.557-1.895 2.252 2.252 0 0 0-1.895-2.557c-1.763-.262-3.458.417-4.951 1.017ZM33.544 77.445c-2.084-.186-3.629-1.264-4.349-3.037-1.354-3.332.784-7.944 2.212-9.604a25.791 25.791 0 0 1 10.324-6.924c3.875-1.332 7.11-1.391 10.487-.19a2.25 2.25 0 0 1-1.508 4.24c-2.417-.86-4.595-.798-7.48.193a21.201 21.201 0 0 0-8.448 5.657c-.918 1.068-1.839 3.9-1.419 4.934v.001c.03.072.07.166.371.22.491-.222 1.502-1 2.066-1.433l.017-.013c.8-.614 1.49-1.145 2.146-1.462 1.896-.918 5.517-2.34 8.457-1.535a2.249 2.249 0 0 1 .221 4.267c-1.585.618-2.657 1.626-3.019 2.839-.363 1.217-.006 2.667 1.004 4.08a2.25 2.25 0 0 1-3.662 2.616c-1.782-2.496-2.388-5.242-1.717-7.76-.235.174-.488.368-.705.535-1.694 1.303-3.309 2.525-5 2.376h.002Z" fill="#1D253B"/></svg>