<svg width="435" height="440" fill="none" xmlns="http://www.w3.org/2000/svg"><path opacity=".28" d="M380.004 78.54c-3.8-10.1-9.3-19.3-15.9-27.8-12.7-16.5-28.3-32.3-47.3-41.4-20.4-9.8-43.3-10.6-65.5-8.2-41.7 4.4-84.4 16-118.1 41.9-31.3 24-54.2 61.6-53.7 101.8.1 5.9.5 11.9 1.3 17.8.4 2.7 3.4 5.5 5.8 5.7 24.7 1.6 61.7-1.1 69.1-1.1 7.4 0 10-5.6 12.1-13.6 3-11.8 8.1-22.7 15.5-31.8l-2.3.2c-1.6.1-8.2 1.4-8.9.2-1-1.7 5.7-8.5 6.7-9.6 3.6-4.2 7.3-8.3 11.3-12.2 4.1-4 8.1-8 12-12.1 5.5-5.8 11.5-11 17.3-16.4.5-.5 1.1-1 1.7-1.5-3.5-.7-6.7-2.4-9.3-4.9-.2-.2-.3-.5-.4-.8-.1-.3 0-.6.1-.9.1-.3.3-.5.6-.7.2-.2.5-.3.8-.3 11-.5 19.3-9.2 29.5-12.1 8.4-2.4 22.6-.1 24.9 9.8l.1.2c6.9 1 10.4 7 13.2 12.6 2.6 5.3 3.6 11.2 4 17.1 4.8-.5 9.6.2 12.9 3.6 5.8 6.1 1.4 15.2-4.9 19.1 1.8 3.2 3.3 6.6 4.5 10.1 3.6 10.1 5.1 20.8 4.3 31.5-1 14.4-9.2 28.4-17.6 41.9.1 3.3.2 6.5.3 9.6v4.2c4.1 3 12.4 10 16.1 13.1 11.3 9.4 20.5 20 30.9 30.2 3-5.8 6.3-11.4 10-16.8 12.2-18.3 26.2-35.4 33.4-56.6 3.8-11.1 5.8-22.6 7.3-34.2 1.5-11.4 2.8-22.9 3.1-34.4.3-11.1-.9-22.5-4.9-33.2Z" fill="#E8F1FA"/><path d="M368.706 295.441c-10.4-14.5-21.6-29.7-34.6-42.3-3.8-3.7-7.5-7.5-11-11.1-6.6-6.9-13.5-13.9-21.3-20.3a79.61 79.61 0 0 0-1.799-1.508h-.001c-.375-.309-.775-.638-1.2-.992-3.8-3.2-8.8-7.3-12.1-9.9v-2.8c-.2-16.4-1.6-36.2-4.2-60.7-.2-2.1-1-7.4-2.9-12v-5.9c1.1-2.8 2-5.8 2.7-8.7 2.5-.4 5-1 7.5-1.7 5.7-1.6 10.9-6.8 12.5-12.8 1.3-4.7.3-9.1-2.9-12.4-3.5-3.7-8.7-5.2-15.1-4.5-.5-5-1.5-9.9-3.8-14.4-2.8-5.6-6.2-11.6-13.2-12.6l-.1-.2c-2.3-9.9-16.5-12.2-24.9-9.8-4.3 1.21-8.252 3.432-12.189 5.646-5.495 3.089-10.962 6.162-17.311 6.454-.3 0-.6.1-.8.3-.2.2-.4.4-.6.7-.15.225-.131.45-.113.675.007.075.013.15.013.225 0 .3.2.6.4.8 1.9 1.9 4 3.1 6.2 4l-.4.4-3.6 3.3c-4.6 4.2-9.3 8.5-13.7 13l-1.2 1.2a990.784 990.784 0 0 0-3.5 3.522h-.001c-2.388 2.41-4.821 4.867-7.299 7.278-4.5 4.3-8.5 8.9-11.5 12.4-.037.036-.087.1-.15.18-.11.139-.26.33-.45.52-5.5 6-7.9 9.4-6.4 12.1 1.4 2.4 4.6 2.1 9.9 1.4l.42-.062h.003c.514-.076.939-.138 1.177-.138.8-.05 1.625-.1 2.45-.15.825-.05 1.65-.1 2.45-.15l5.1-.3c1.4-.1 4.3-.1 6.6 0-.1 2-.2 4.5-.2 6.2 0 7.426.266 14.919.527 22.261v.001c.059 1.654.118 3.301.173 4.938.3 8.7.6 17.7.7 26.6l-.5.5c-1.745 2.479-2.815 4.537-3.908 6.638l-.292.562c-.3.5-.6 1.1-.8 1.6-1.031 1.976-2.357 5.428-3.154 7.503l-.346.897c-.7.45-1.775 1.175-2.85 1.9l-.002.001c-1.074.724-2.149 1.449-2.848 1.899-20.5 12.5-35.1 22.6-46.7 30.7l-3.6 2.5c-11.7 8.1-29.4 23.9-37 34.4-9.2 1.9-18.5 6.3-25 11.9-6 5.2-16.2 17.4-19.8 24.7-3.7 7.6-5.8 13.3-6.2 21.7-.1 1.5 1.1 2.8 2.6 2.9h.1c1.5 0 2.7-1.1 2.7-2.6.4-7.4 2.2-12.4 5.7-19.5 3.2-6.6 12.8-18.1 18.4-23 6-5.2 15-9.3 23.5-10.9.7-.1 1.3-.5 1.8-1.1 6.7-9.6 24.6-25.8 36.3-33.9l3.6-2.5c11.6-8.1 26-18.1 46.4-30.5 1.2-.7 3.3-2.1 4.8-3.1 3.9 3.7 8.1 5.9 12.3 6.6.3 4.6 1.3 9.4 3.9 12.3 2.1 2.4 5 3.3 8.2 2.6 1.9-.4 3.3-1.6 4.3-3.3.1 3.6 1.1 7.5 2.5 10.9a.214.214 0 0 1-.017.077.783.783 0 0 1-.033.073c-.025.05-.05.1-.05.15-.195.874-2.183 4.299-3.947 7.337l-.153.263c-8 14-14.4 26-11.6 31.8.8 1.7 2.4 2.8 4.4 3.2 1.6.2 3-.5 4.4-1.2a.503.503 0 0 1 .2-.1.503.503 0 0 0 .2-.1c-.3 1-.9 2.8-2.6 5.8-.117.234-.235.434-.332.6-.068.117-.127.217-.168.3-.09.179-.2.379-.321.6h-.001c-.148.27-.313.57-.478.9-3.2 6.1-5.1 10.4-2.5 12.9.9.9 2.1 1.2 3.2 1.1-.8 3-2.9 7.5-4.8 9.7h-.2c-3.1-.5-11.2-1.2-17.7 2-4.6 2.3-7.9 4.7-11.1 8.1-1.1-2.3-2.6-4.1-4.6-5.4-3.5-2.3-8-2.7-13.2-1.2-7.1 2.1-12.4 4.3-18.6 9.2-.144-.36-.34-.669-.551-1v-.001c-.082-.128-.166-.26-.249-.399-1.7-2.3-4.6-3-7.6-3.2-.1-.7-.2-1.4-.5-2-.05-.15-.125-.3-.2-.45-.075-.15-.15-.3-.2-.45 3.4-.8 5.9-2.2 7.8-4.3 2.5-2.6 3.8-7.9 3.1-11.7-.3-1.5-1.7-2.5-3.2-2.2-1.5.3-2.5 1.7-2.2 3.2.4 2-.5 5.6-1.7 6.9-2.2 2.4-6.4 3.5-13.8 3.6-1.5 0-2.7 1.2-2.7 2.7 0 1.5 1.1 2.7 2.6 2.8 3.6.3 5.2 1.2 5.5 1.9v.1h-.3c-.33 0-.661.03-.958.057-.242.022-.462.043-.642.043-2.6.1-7.1.8-11.1 2.5-6.4 2.7-7.8 6.2-7.8 8.7 0 .8.3 2.8 3 3.8 1.2.5 2.8.7 4.6.7 4.6 0 10.3-1.6 13.7-5.3 1.6-1.8 2.9-3.6 3.7-5.3 1.9 0 3.8.3 4.5 1.1.4.5.3 1.6-.2 3.2-.4 1.2 0 2.5 1.1 3.2 1.1.7 2.5.6 3.4-.3 7.7-7.2 12.9-9.6 21-12 3.6-1 6.6-.9 8.6.5 2.5 1.6 3.3 4.7 3.6 7 .1 1.1.9 2 2 2.3 1.1.3 2.2-.1 2.9-1 3.9-5.2 7.1-7.9 12.6-10.6 3.6-1.8 8.9-2.3 14.4-1.5 4.7.7 10.5 2.3 16.5 4.5-1.4 2-2.5 4.5-3.5 7-.6 1.5-1.2 2.9-1.9 4.1-4.7 8.7-7.6 19-7.9 27.5-.1 4.681 1.487 8.171 2.982 11.46l.018.04c.139.313.291.639.446.973.29.624.593 1.275.854 1.927.403.886.611 1.578.729 1.97.028.095.051.172.071.23a6.193 6.193 0 0 1-.378.578c-.078.111-.156.222-.222.322-.3.4-.6.8-.9 1.3-.188.251-.337.502-.472.728-.079.134-.154.26-.228.372h-.1c-1.15.5-2.325 1-3.5 1.5-1.175.5-2.35 1-3.5 1.5l-1.473.643c-5.737 2.506-11.617 5.075-17.327 6.457-5.2 1.2-10.5 2-15.9 2.3-1.6.1-3.2.3-5 .6-3.9.6-7.9 1.1-10.9.2-1.5-.5-3 .4-3.4 1.8-.4 1.4.4 3 1.8 3.4 1.7.5 3.6.7 5.4.7 2.178 0 4.426-.281 6.568-.549.415-.051.826-.103 1.232-.151a81.766 81.766 0 0 0 1.861-.263h.002c.945-.142 1.846-.277 2.637-.337 5.6-.3 11.3-1.2 16.8-2.5 6.734-1.684 13.273-4.545 19.615-7.32l.185-.08c.7-.3 1.4-.6 2.2-1-.5 2.1-.9 4.1-1.2 6.1l-.6 3.6c-.9 4.5-1.6 9-.6 13.7.2 1 .5 1.9.9 2.8.4 1.1.7 2.1.8 3 0 .062-.004.124-.01.187l-.011.106c-.023.21-.047.435.021.707.1 1.4 1.3 2.5 2.7 2.5h.1c1.4 0 2.6-1 2.7-2.4v-.4c.1-.2.2-.6.3-1 .2-.9-.1-1.7-.6-2.3-.115-.459-.263-.886-.405-1.298-.107-.306-.21-.604-.295-.902-.205-.479-.363-1.004-.507-1.48-.067-.22-.13-.43-.193-.62-.8-3.7-.2-7.4.6-11.5.089-.535.198-1.089.309-1.654v-.001c.138-.704.28-1.425.391-2.145.7-4.4 1.5-8.9 3.7-12.2.137-.23.275-.417.403-.591.151-.206.289-.393.397-.609 2.1-2.9 2.2-4.3.5-8.5-.18-.397-.348-.781-.511-1.156h-.001a40.504 40.504 0 0 0-.888-1.944c-1.5-3.1-2.6-5.6-2.5-9 .2-7.6 3-17.2 7.2-25.1.7-1.4 1.4-3 2.1-4.6l.173-.409c1.043-2.471 2.1-4.975 3.427-6.491 2.2-2.5 4.2-4.3 6-5.5 1.8.7 4.2 1 7.5 1 1.1 0 2.3 0 3.6-.1 11.5-.7 22.6-5.8 29.9-9.5.153-.077.3-.154.443-.229h.001c.418-.218.809-.422 1.256-.571l.812-.405.012-.006c1.905-.947 3.752-1.865 5.676-3.089.6-.4 1.6-1.1 2.7-1.9 3 8.9 3.9 20.5 4.7 30.9.093 1.021.164 2.021.234 3a116.3 116.3 0 0 0 .266 3.3l.5 5.1c.9 9.5 1.8 19.2 2.2 28.8 0 .719-.081 2.165-.17 3.758l-.03.542c-.6 8.6-.8 14.3 2 16.5.5.4 1.1.6 1.7.6.8 0 1.6-.4 2.2-1.1.9-1.1.8-2.7-.3-3.7-.772-1.641-.333-8.407-.122-11.663l.022-.337c0-.3 0-.7.1-1 .2.5.5 1 .8 1.5 1.9 2.4 3.9 3.1 5.5 3.1.64 0 1.216-.128 1.677-.231.115-.025.223-.049.323-.069.9-.3 1.7-.8 2.5-1.5 1.1 1.8 2.8 3.4 5.9 3.4h.1c1.9 0 3.6-.9 4.9-2.2 1 1.8 2.5 2.7 3.5 3 .7.2 1.4.4 2.2.4 3.1 0 6.2-2 7.7-4.3 2.6-4.1 4.2-8.6 5-13.3.8.8 1.8 1.4 2.8 1.7.4.1 1 .2 1.6.2 1.2 0 2.7-.4 4.3-1.6 4.8-3.7 3.9-13.3 2.1-23.1l-.1-.3c-1.6-9.2-6.1-17.4-12.3-22.5-6.9-5.7-13.5-8.1-22-8.1h-3c-6.5 0-12.2 0-18.6 1.1-.9-6-2.2-11.8-4.2-16.7.8-2.1.8-5 .8-8.3v-1.1c0-5.2-.6-18.6-1.2-23.4a67.75 67.75 0 0 1-.239-2.131c-.079-.774-.156-1.535-.261-2.269-.5-5.6-1-10.2-3.5-11.8 0-1.14-.01-2.46-.021-3.847v-.001c-.022-2.992-.048-6.292.021-8.752v-3.2c0-2.549.025-5.122.05-7.696V223.836c.025-2.574.05-5.147.05-7.695l.602.494.002.002c2.66 2.184 5.666 4.653 7.896 6.604.424.353.823.682 1.197.99l.003.002h.001a79.61 79.61 0 0 1 1.799 1.508c7.457 6.164 13.925 12.823 20.683 19.779l.117.121c3.6 3.7 7.3 7.5 11.2 11.3 12.7 12.2 23.7 27.2 33.9 41.5.5.8 1.4 1.2 2.2 1.2.6 0 1.1-.2 1.6-.5 1.5-.7 1.8-2.4.9-3.7Zm-242.9 29.2c-1.4 1.5-3.9 2.7-6.9 3.2-2 .3-3.5.3-4.5.1 1.6-2.1 7.6-4.2 12.4-4.6l-.001.001c-.3.4-.6.799-.999 1.299Zm173.5 30c.3.4.6.8.8 1.3-.2.2-.4.3-.6.4-.1-.6-.2-1.2-.2-1.7Zm1.5 10.5-.6 2.7c-.1-2-.2-3.9-.4-5.9.5-.1 1.1-.3 1.6-.5 0 .719-.243 1.923-.51 3.249l-.09.451Zm13.1-47.5h3c7.3 0 12.5 1.9 18.5 6.9 5.1 4.2 9 11.3 10.4 19.2l.1.3c2.4 13.6 1 16.9-.1 17.7-.5.4-.9.5-1 .5-.4-.1-1.7-1.1-3.9-7-.7-9.7-4.2-19.1-9.4-25.6-.9-1.2-2.7-1.4-3.9-.5-1.2.9-1.4 2.7-.5 3.9 8.4 10.7 12 29.7 3.6 43.1-.8 1.2-2.6 2-3.4 1.7-.7-.2-1.3-1.9-1-5 2.9-7.5 3-14.3 2.2-22.6-.398-3.585-1.491-6.972-2.488-10.061l-.012-.039c-.1-.35-.225-.7-.35-1.05-.125-.35-.25-.7-.35-1.05-.5-1.5-2-2.3-3.4-1.8-1.4.5-2.3 2-1.8 3.4.085.298.188.596.295.902v.001c.143.412.29.838.405 1.297 1 2.9 2 5.9 2.2 8.9.8 7.9.7 13.7-2 20.4-1.4 3.5-3.1 5.4-4 5.4-1 0-1.5-.5-2.1-3.2 2.6-4.9 4-11 4-13.5v-.6c0-4.9 0-8.7-1-11.7-.5-1.4-2.1-2.2-3.5-1.7-1.4.5-2.2 2.1-1.7 3.5.7 2.1.7 5.499.7 9.799v.601c0 3.5-3.7 14.1-6.7 15.1-.4.1-1-.5-1.4-1-.686-.98.259-5.699.674-7.772l.026-.128c.4-1.8.7-3.3.8-4.6.1-4-1.3-7.9-3.8-11-1-1.2-2.7-1.4-3.9-.4-.03.03-.07.06-.113.093-.099.076-.217.167-.287.307-.2-2.5-.4-5-.7-7.4l-.5-5.1a116.3 116.3 0 0 1-.266-3.3c-.07-.979-.141-1.979-.234-3-.3-4.2-.7-8.6-1.2-13 6.3-.9 11.8-.9 18.1-.9Zm-123.1-199.3c-1.7.1-3.4.2-5.1.4l-4.8.3c-.427 0-1 .073-1.657.156l-.343.044c-.5.083-1.348.166-2.195.25l-.505.05c.559-.769 1.362-1.684 2.443-2.916.466-.531.984-1.121 1.557-1.784.15-.2.3-.35.425-.475s.225-.225.275-.325c2.9-3.4 6.8-7.8 11.2-12 3.8-3.6 7.4-7.3 10.9-10.9l1.2-1.2c3.755-3.843 7.815-7.533 11.781-11.137l1.719-1.563 3.6-3.3c1.1-1 2.3-2 3.5-3 3.3.2 6.7 0 10.1-.3 3.524-.271 7.691-1.875 11.599-3.378 1.858-.714 3.657-1.407 5.301-1.922 4.3-1.3 7.6-.2 10.8 3-1.8 5.9-1.7 10.6.9 16.5 1.474 3.345 3.945 6.048 6.429 8.764 1.896 2.073 3.799 4.154 5.271 6.536.2.3.4.5.7.6.3.1.7.1 1 .1.3-.1.6-.3.8-.5.2-.2.3-.6.3-.9.1-1.6.3-3.1.5-4.6 4.7-1.5 12.7-3.2 16.9 1.4 1.9 1.9 2.4 4.4 1.6 7.2-1.1 4.1-4.9 7.9-8.7 9a57.4 57.4 0 0 1-11.7 2.1c-1.4.1-2.5 1.3-2.5 2.8v9.6c-2.3-1.4-4.8-1.6-7.5-.6-5.9 2.2-5.7 11.7-5.5 18.1v23c0 2.089-.112 4.29-.21 6.228v.005c-.033.657-.065 1.284-.09 1.867-1.3-.8-2.7-1.5-3.9-2a52.426 52.426 0 0 0-1.504-.592c-.686-.262-1.358-.518-1.996-.808l-.655-.259c-3.563-1.411-7.01-2.776-11.345-3.341-3.6-.5-8.8-.8-12.6.8-2.5 1.1-6.8 5.2-7.3 8.8-3 1.3-6 3.6-8.4 6.3-1.24-.131-3.204-.304-5.337-.492h-.005l-.007-.001c-1.131-.1-2.309-.203-3.451-.307-.1-8.9-.4-17.8-.7-26.5-.056-1.659-.115-3.328-.175-5.004v-.006c-.261-7.313-.525-14.751-.525-21.99 0-3 .3-8.7.3-8.7 0-.7-.2-1.5-.7-2-.5-.6-1.2-.9-2-.9-.1-.2-7-.3-9.7-.2Zm17 77.6v.5c-1 1.2-1.8 2.7-2.4 4.4-.5 1.4-1 4-1.2 7.2-2.9-.7-5.9-2.5-8.8-5.2.7-1.9 2-5.2 2.9-6.9.15-.3.3-.575.45-.85.15-.275.3-.55.45-.85.9-1.8 1.8-3.4 2.9-5.3 1.32.11 2.791.25 4.231.387 1.178.112 2.334.223 3.369.313-1.1 2.1-1.8 4.2-1.9 6.3Zm24.7 67.3c-.4.1-.7.2-1.1.4-.7.5-1.2 1.4-1.2 2.3 0 6 .4 14 .8 21l.2 4.1c.1 2.299.1 5.199.1 8.098v.002c0 6.5.1 10.3.5 12.7-1.2.9-2.5 1.9-3.8 3.2-3.5-1.3-8.4-3-13.6-4.3 3-4.7 6-12.1 4.1-16-.3-.7-.9-1.2-1.6-1.4-.6-.2-1.2-.2-1.7 0 .7-1.8 1.8-3.9 2.4-4.9l.8-1.6c.1-.2.2-.4.4-.7l.032-.06c1.913-3.523 5.841-10.757 1.068-13.74-2.2-1.4-4.6-.2-6.3.7-.4.2-1 .5-1.3.6h-.1s-1.2-1.6 2.5-10c2.388-5.473 5.964-11.638 8.856-16.625l.044-.075c1.1-2 2-3.6 2.8-4.9 1.9 2.5 4.1 4.2 6.4 5.1-.4 4.9-.4 12.1-.3 16.1Zm-2.2-25.4c-3.7-5.3-5.3-13.6-3.4-17.4.3-.5.5-.8.9-1.1.8-.1 1.7-.3 2.5-.6 1.3-.5 2-1.8 1.8-3.1-.2-1.3-1.4-2.3-2.7-2.3-1.1 0-2.1.2-3 .5-2.5.1-4.9-1.3-6.4-3.7-.8-1.2-2.3-1.6-3.5-1-1.3.6-1.9 2.1-1.4 3.4 1 2.8 1.8 7.9.8 9.9-.2.4-.4.5-.6.5-1.3.3-2.1 0-2.9-.8-3.4-3.9-2.9-16.1-1.6-19.5 1.4-3.7 3.8-5.6 7.6-5.8 2.358-.182 4.798.459 7.245 1.102l.461.121.294.077 1.2.3c2.4.6 6.6 3.4 8 4.4 1.2.9 3 .6 3.8-.6.9-1.2.6-2.9-.6-3.8a10.528 10.528 0 0 1-.143-.098l-.127-.088c-1.28-.886-6.069-4.203-9.53-5.114l-1.2-.3-.154-.041c-2.959-.79-6.206-1.656-9.646-1.459-1.1.1-2.2.2-3.2.5 2.3-4.5 7.4-9 11.4-9.4 2.6-.3 6.5 1.5 9.7 3 .4.2.8.375 1.2.55.4.175.8.35 1.2.55 2.499 1.06 6.833 3.669 8.833 4.872.641.386 1.043.628 1.067.628 1.3.8 3 .4 3.8-.8.8-1.3.4-3-.8-3.8-.3-.2-6.9-4.4-10.7-6-.7-.3-1.4-.6-2.2-1-3-1.4-6.5-3-9.9-3.4.9-1.1 2.1-2.4 3-2.8 2-.9 5.6-1 9.7-.4 3.9.6 7 1.8 10.7 3.3.864.36 1.676.668 2.548.999h.001c.339.129.687.261 1.051.401 2.3.9 6.4 3.6 7.7 4.6.5.3 1 .5 1.6.5.9 0 1.7-.4 2.2-1.2.8-1.2.6-2.8-.5-3.7.2-2.2.6-7 .6-11.5V144.041c-.3-9.9.9-12.4 1.9-12.7 1.4-.5 2.3-.2 2.8.2 1.1.7 2 2 2.8 3.8.1.3.2.6.4.8 1.2 3 2.1 6.9 2.5 10.4 2.6 24.2 4 43.9 4.2 60.2v3c-.3.7-.3 1.5 0 2.1v23.3c0 4.6 0 12.1.1 15-3.2 4.6-14 11.1-24.2 13.2-7.5 1.5-14.1 1.9-19.1 1.1-.1-3.3-.2-11.3.2-16.7 1.4-.3 2.3-1.6 2.1-3-.2-1.5-1.6-2.6-3.1-2.4-3.5.3-6.1-2.7-7.3-4.5Zm55.6 57c-.6.8-3.2 2.9-4.4 3.7-2 1.2-4 2.2-6 3.2-.153.076-.3.153-.444.228-.418.218-.809.423-1.256.572-6.9 3.5-17.3 8.2-27.8 8.9-4.6.3-7.6-.1-8.7-.5-.5-1.9-.5-7.9-.5-12v-.002c0-2.899 0-5.899-.1-8.298l-.2-4.1c-.3-5.6-.6-11.9-.7-17.1 7.3 1.5 16 .4 22.4-.9 7-1.4 19.8-6.8 26-13.5.2 1.5.4 3.3.5 4.8.1 1.4.3 3 .5 4.5.5 4.6 1.1 17.7 1.1 22.7v1.2c.1 1.5.2 5.7-.4 6.6Zm-60.2-189.6c1.5 0 2.8-1.2 2.8-2.8v-5c0-1.5-1.2-2.8-2.8-2.8-1.6 0-2.8 1.2-2.8 2.8v5c.1 1.6 1.3 2.8 2.8 2.8Zm17.999-2.8c0 1.6-1.3 2.8-2.8 2.8-1.6 0-2.8-1.2-2.8-2.8v-5c0-1.6 1.2-2.8 2.8-2.8 1.6 0 2.8 1.3 2.8 2.8v5Zm39.701 4.9c-.1.1-.3.1-.5.1-1.2 0-2.4-1-2.8-2.4-.3-1.5.7-2.9 2.2-3.2l.7-.1c.9-.1 1.9-.3 2.7-.5 1.5-.3 3 .6 3.3 2.1.3 1.5-.6 3-2.1 3.3-.9.2-1.8.4-2.8.6l-.7.1Zm-53.901 18.8c-.8 0-1.7-.4-2.2-1.1-.9-1.2-.7-2.9.5-3.9 3.8-2.8 11.1-6.3 14.8-1.5 1 1.3.7 3-.5 3.9-1.3 1-3 .7-3.9-.5-.5-.8-4.2.4-7.1 2.6-.4.3-1 .5-1.6.5Zm9.201 177.9c0-1.6 1.3-2.8 2.8-2.8 1.5 0 2.7 1.2 2.8 2.8v1c0 1.6-1.2 2.8-2.8 2.8-1.6 0-2.8-1.3-2.8-2.8v-1Z" fill="#1D253B"/></svg>