<svg xmlns="http://www.w3.org/2000/svg" width="98" height="24" fill="none"><g clip-path="url(#a)"><path fill="#191919" d="M25.754 8.506h9.923v1.846h-3.901V20.73H29.63V10.352h-3.884V8.506h.008Zm9.5 3.373h1.833v1.708h.035c.06-.241.173-.474.337-.698.165-.225.364-.44.597-.622.234-.19.493-.336.779-.457.285-.112.58-.172.874-.172.225 0 .389.008.475.017.087.009.174.026.269.034v1.881a6.274 6.274 0 0 0-.424-.06 3.592 3.592 0 0 0-.424-.026c-.329 0-.64.069-.934.198-.295.13-.545.328-.762.578-.216.259-.39.57-.519.95-.13.379-.19.81-.19 1.302v4.21h-1.955v-8.843h.008ZM49.44 20.73h-1.92v-1.233h-.035a2.663 2.663 0 0 1-1.073 1.07c-.475.267-.96.405-1.453.405-1.168 0-2.016-.285-2.535-.863-.519-.578-.778-1.449-.778-2.614V11.88h1.955v5.426c0 .777.147 1.33.45 1.648.294.32.718.483 1.254.483.415 0 .753-.06 1.03-.19.276-.129.501-.293.666-.508.173-.207.294-.466.371-.76.078-.293.113-.612.113-.957v-5.133h1.955v8.842Zm3.33-2.838c.061.57.278.966.65 1.2.38.224.83.344 1.358.344.182 0 .39-.017.623-.043.233-.026.458-.086.657-.164.208-.077.372-.198.51-.353.13-.156.191-.354.182-.604a.833.833 0 0 0-.276-.613 1.95 1.95 0 0 0-.658-.388 6.625 6.625 0 0 0-.917-.25c-.346-.07-.692-.147-1.047-.224a9.938 9.938 0 0 1-1.055-.294 3.225 3.225 0 0 1-.909-.466 2.05 2.05 0 0 1-.64-.741c-.164-.303-.242-.673-.242-1.122 0-.483.121-.88.355-1.208.233-.328.536-.586.89-.785a4.136 4.136 0 0 1 1.203-.423c.442-.077.865-.12 1.263-.12.459 0 .9.051 1.315.146.416.095.796.25 1.134.475.337.216.614.5.839.845.225.345.363.768.424 1.26h-2.042c-.095-.466-.303-.785-.64-.94-.337-.165-.727-.242-1.16-.242-.138 0-.302.008-.492.034-.19.026-.364.07-.537.13-.164.06-.303.155-.424.276a.666.666 0 0 0-.173.474c0 .242.087.432.251.578.164.147.38.268.649.371.268.095.57.181.917.25.346.07.7.147 1.064.225.355.077.7.18 1.047.293.346.112.649.268.917.466s.484.44.649.733c.164.293.25.665.25 1.096 0 .526-.12.966-.363 1.337a2.873 2.873 0 0 1-.934.889 4.4 4.4 0 0 1-1.28.5 6.443 6.443 0 0 1-1.393.155c-.563 0-1.082-.06-1.557-.19a3.796 3.796 0 0 1-1.238-.569 2.827 2.827 0 0 1-.822-.957c-.199-.38-.302-.837-.32-1.364h1.973v-.017Zm6.455-6.013h1.479V9.222h1.955v2.657h1.765v1.458H62.66v4.728c0 .207.009.38.026.535.017.146.06.276.121.38.06.103.156.18.286.232.13.052.294.078.519.078.138 0 .277 0 .415-.009.138-.008.277-.026.415-.06v1.51c-.216.025-.432.042-.631.068a5.068 5.068 0 0 1-.632.035c-.519 0-.934-.052-1.246-.147-.311-.095-.562-.241-.735-.431a1.495 1.495 0 0 1-.363-.707 5.314 5.314 0 0 1-.113-.975v-5.22h-1.48V11.88h-.016Zm6.583 0h1.851v1.2h.035c.277-.518.658-.88 1.15-1.105a3.801 3.801 0 0 1 1.601-.336c.7 0 1.306.12 1.826.37.519.242.951.579 1.297 1.01.346.431.597.932.77 1.501.173.57.26 1.182.26 1.829 0 .595-.078 1.173-.234 1.725a4.61 4.61 0 0 1-.7 1.484c-.312.431-.71.768-1.195 1.027-.484.259-1.046.388-1.704.388-.285 0-.57-.026-.856-.078a3.772 3.772 0 0 1-.822-.25 2.968 2.968 0 0 1-.727-.44 2.735 2.735 0 0 1-.562-.621h-.035V24H65.81V11.88Zm6.835 4.434c0-.396-.052-.785-.156-1.164a3.137 3.137 0 0 0-.467-1 2.377 2.377 0 0 0-.77-.7 2.164 2.164 0 0 0-1.064-.267c-.822 0-1.445.285-1.86.854-.416.57-.623 1.329-.623 2.277 0 .449.052.863.164 1.243.113.38.268.707.493.983.216.276.476.492.779.647.303.164.657.242 1.055.242.45 0 .822-.095 1.134-.276a2.39 2.39 0 0 0 .76-.708c.2-.293.347-.62.433-.992.078-.37.121-.75.121-1.139Zm3.451-7.807h1.956v1.846h-1.956V8.506Zm0 3.373h1.956v8.851h-1.956v-8.85Zm3.703-3.373h1.955V20.73h-1.955V8.506Zm7.95 12.466c-.709 0-1.34-.12-1.894-.354a4.184 4.184 0 0 1-1.41-.966 4.205 4.205 0 0 1-.874-1.475 5.678 5.678 0 0 1-.303-1.88c0-.674.104-1.295.303-1.864.199-.57.493-1.061.874-1.475.38-.415.856-.734 1.41-.967.553-.233 1.185-.353 1.894-.353.71 0 1.341.12 1.895.353.554.233 1.02.561 1.41.967.38.414.675.905.874 1.475.199.57.303 1.19.303 1.863a5.68 5.68 0 0 1-.303 1.88 4.203 4.203 0 0 1-.874 1.476c-.38.414-.856.733-1.41.966-.554.233-1.185.354-1.895.354Zm0-1.544c.433 0 .814-.095 1.134-.276.32-.181.58-.423.787-.716.207-.294.355-.63.458-1.001.096-.371.148-.75.148-1.139 0-.38-.052-.75-.148-1.13a2.948 2.948 0 0 0-.458-1 2.273 2.273 0 0 0-1.92-.983c-.433-.001-.814.094-1.134.275-.32.181-.58.423-.787.707a3.123 3.123 0 0 0-.459 1.001c-.095.38-.147.75-.147 1.13 0 .388.052.768.147 1.139.096.37.251.707.459 1 .207.294.467.536.787.717.32.19.7.276 1.133.276Zm5.053-7.549h1.479V9.222h1.955v2.657H98v1.458h-1.765v4.728c0 .207.009.38.026.535a.98.98 0 0 0 .121.38c.06.103.156.18.286.232a1.4 1.4 0 0 0 .519.078c.138 0 .277 0 .415-.009.138-.008.277-.026.415-.06v1.51c-.216.025-.432.042-.631.068a5.067 5.067 0 0 1-.632.035c-.519 0-.934-.052-1.246-.147-.311-.095-.562-.241-.735-.431a1.496 1.496 0 0 1-.363-.707 5.305 5.305 0 0 1-.113-.975v-5.22h-1.48V11.88h-.016Z"/><path fill="#00B67A" d="M23.47 8.506h-8.962L11.74 0 8.963 8.506 0 8.497l7.258 5.263-2.777 8.497 7.259-5.253 7.25 5.253-2.77-8.497 7.25-5.254Z"/><path fill="#005128" d="m16.844 15.684-.623-1.924-4.481 3.244 5.104-1.32Z"/></g><defs><clipPath id="a"><path fill="#fff" d="M0 0h98v24H0z"/></clipPath></defs></svg>