<svg width="44" height="25" viewBox="0 0 44 25" fill="none" xmlns="http://www.w3.org/2000/svg">
<path d="M23.2175 6.23811C23.2175 7.28637 21.9009 7.22509 21.9009 7.22509H20.5843V5.32991H21.9009C23.2562 5.31897 23.2175 6.23811 23.2175 6.23811ZM20.5832 2.439H21.5875C22.6304 2.49371 22.5896 3.26185 22.5896 3.26185C22.5896 4.2171 21.4385 4.23351 21.4385 4.23351H20.5832V2.439ZM22.9747 4.60664C22.9747 4.60664 23.8742 4.22585 23.8687 3.21589C23.8687 3.21589 24.0144 1.56144 21.7928 1.35901H19.3405V8.29633H22.1525C22.1525 8.29633 24.5033 8.30289 24.5033 6.33878C24.5033 6.33878 24.5617 5.00165 22.9758 4.60555M16.6245 0H26.9555V9.65206H16.6245V0ZM11.304 6.23811C11.304 7.28637 9.98734 7.22509 9.98734 7.22509H8.67073V5.32991H9.98734C11.3426 5.31897 11.304 6.23811 11.304 6.23811ZM8.66962 2.439H9.67392C10.7168 2.49371 10.6749 3.26185 10.6749 3.26185C10.6749 4.2171 9.52382 4.23351 9.52382 4.23351H8.66852V2.439H8.66962ZM11.0612 4.60664C11.0612 4.60664 11.9606 4.22585 11.9551 3.21589C11.9551 3.21589 12.1008 1.56144 9.87919 1.35901H7.42584V8.29633H10.2379C10.2379 8.29633 12.5886 8.30289 12.5886 6.33878C12.5886 6.33878 12.6471 5.00165 11.0612 4.60555M4.71094 0H15.0419V9.65206H4.71094V0ZM36.7601 1.85688V3.1382C36.7601 3.1382 35.4986 2.36897 34.1059 2.35365C34.1059 2.35365 31.5046 2.30332 31.3876 4.82658C31.3876 4.82658 31.3005 7.1474 34.0738 7.27871C34.0738 7.27871 35.2415 7.41767 36.8241 6.41756V7.74484C36.8241 7.74484 34.6985 8.99553 32.2396 8.03262C32.2396 8.03262 30.1726 7.28418 30.0931 4.82658C30.0931 4.82658 30.0059 2.29894 32.765 1.46078C32.765 1.46078 33.5011 1.18066 34.8232 1.3054C34.8232 1.3054 35.6145 1.38309 36.759 1.85688M28.5359 9.65315H38.8669V0H28.5359V9.65315Z" fill="#1D253B"/>
<path d="M7.4732 23.9052C6.90453 23.0214 6.32167 22.1278 5.72243 21.2234C5.13411 20.32 4.54579 19.4254 3.95748 18.5416C3.36916 17.6578 2.7852 16.799 2.20671 15.9642V23.9052H0.382812V13.253H2.2973C3.19452 14.5444 4.07754 15.8457 4.94528 17.1567C5.82285 18.4677 6.69496 19.7982 7.5627 21.1495V13.253H9.38769V23.9052H7.4732ZM11.8643 13.253H19.0147V14.8467H13.7635V17.6024H18.4461V19.196H13.7635V22.3094H19.2985V23.903H11.8654V13.253H11.8643ZM29.6416 23.9052C29.2726 22.6344 28.9081 21.3582 28.549 20.0765C28.1899 18.7949 27.8406 17.5143 27.5022 16.2327C27.1628 17.5034 26.8135 18.7851 26.4555 20.0765C26.1062 21.3582 25.7471 22.6344 25.3782 23.9052H23.3742C22.8459 22.167 22.3416 20.4092 21.8635 18.6307C21.3844 16.8534 20.9314 15.0597 20.5024 13.253H22.5512C22.8404 14.7032 23.145 16.1577 23.4637 17.6176C23.7922 19.0677 24.1371 20.4885 24.4962 21.8789C24.875 20.5081 25.2395 19.1427 25.5877 17.7817C25.9468 16.4207 26.2907 15.0597 26.6203 13.6998H28.49C28.8197 15.051 29.158 16.3968 29.5073 17.7372C29.8566 19.0775 30.2157 20.419 30.5846 21.7593C30.9437 20.3787 31.2821 18.9732 31.6019 17.5426C31.9206 16.112 32.2252 14.6825 32.5144 13.2519H34.5195C34.0807 15.0597 33.6223 16.8523 33.1431 18.6296C32.665 20.407 32.1662 22.1659 31.6467 23.9041H29.6427L29.6416 23.9052ZM38.9193 24.1291C38.3408 24.1291 37.7678 24.065 37.1991 23.9356C36.6304 23.8063 36.0967 23.6073 35.599 23.3399V21.6115C36.6261 22.2474 37.7427 22.5648 38.9499 22.5648C39.6976 22.5648 40.2717 22.4257 40.6701 22.1474C41.0794 21.8691 41.2835 21.4865 41.2835 21.0005C41.2835 20.7222 41.2235 20.494 41.1045 20.3157C40.9844 20.1265 40.8207 19.9733 40.6111 19.8537C40.4114 19.7243 40.1767 19.62 39.9082 19.5406C39.6484 19.4612 39.3745 19.3862 39.0852 19.3167C38.5569 19.1873 38.0734 19.0438 37.6346 18.8851C37.2057 18.7166 36.8313 18.5177 36.5126 18.2894C36.2037 18.0611 35.9646 17.7785 35.7944 17.4404C35.6252 17.1023 35.54 16.6903 35.54 16.2044C35.54 15.5489 35.7049 14.988 36.0334 14.5205C36.363 14.0433 36.8313 13.6759 37.4392 13.4182C38.0472 13.1595 38.7709 13.0312 39.6091 13.0312C40.1571 13.0312 40.7007 13.0954 41.2399 13.2247C41.778 13.3541 42.2571 13.528 42.6763 13.7465V15.4293C42.2768 15.1815 41.8085 14.9825 41.2704 14.8336C40.7421 14.6749 40.1778 14.5955 39.5797 14.5955C38.9019 14.5955 38.3736 14.7249 37.9937 14.9825C37.615 15.2304 37.4251 15.588 37.4251 16.0555C37.4251 16.3935 37.5146 16.661 37.6947 16.8599C37.8737 17.049 38.128 17.2023 38.4576 17.3219C38.7873 17.4317 39.1704 17.5404 39.6091 17.6502C40.0883 17.7698 40.5413 17.9035 40.9703 18.0524C41.409 18.2013 41.7932 18.3948 42.1218 18.634C42.4612 18.8623 42.7254 19.1558 42.9142 19.5134C43.1041 19.8711 43.198 20.3179 43.198 20.8549C43.198 21.5397 43.0288 22.1256 42.6894 22.6127C42.3499 23.0997 41.8565 23.4769 41.2082 23.7454C40.5697 24.0041 39.8067 24.1324 38.9193 24.1324V24.1291Z" fill="#1D253B"/>
</svg>
