<svg width="111" height="21" viewBox="0 0 111 21" fill="none" xmlns="http://www.w3.org/2000/svg">
<g clip-path="url(#clip0_4258_25710)">
<path fill-rule="evenodd" clip-rule="evenodd" d="M0 0H8.13771C9.68774 0 10.8503 0.391379 11.7114 1.04367C12.6586 1.82643 13.1753 2.95707 13.1753 4.34862C13.1753 5.95764 12.5295 6.95782 11.2378 7.56662V7.6536C12.9601 8.21891 13.9503 9.78442 13.9503 11.6543C13.9503 13.4373 13.2614 14.8288 12.142 15.6986C11.1947 16.3943 9.98914 16.6987 8.35299 16.6987H0V0ZM7.31963 6.52296C8.18076 6.52296 8.82661 6.04461 8.82661 5.04443C8.82661 4.0877 8.18076 3.60935 7.27658 3.60935H4.47791V6.47947H7.31963V6.52296ZM7.70714 13.0024C8.69744 13.0024 9.4294 12.3936 9.4294 11.3064C9.4294 10.1323 8.65439 9.61047 7.70714 9.61047H4.52093V13.0459H7.70714V13.0024ZM14.682 0H18.9446V16.7422H14.682V0ZM25.9641 4.47891C22.2182 4.47891 19.807 7.00114 19.807 10.7844C19.807 14.5677 22.2182 17.09 25.9641 17.09C29.71 17.09 32.0781 14.5677 32.0781 10.7844C32.0781 7.04462 29.71 4.47891 25.9641 4.47891ZM25.878 7.39251C27.1697 7.39251 27.8156 8.6971 27.8156 10.7844C27.8156 12.8718 27.1697 14.1764 25.878 14.2198C24.5863 14.2198 23.9835 12.8718 23.9835 10.7844C23.9835 8.6971 24.5863 7.39251 25.878 7.39251ZM32.5506 10.7844C32.5506 7.00114 34.9618 4.47891 38.7077 4.47891C42.4535 4.47891 44.7785 7.00114 44.7785 10.7844C44.7785 14.5677 42.4104 17.09 38.6645 17.09C34.9618 17.09 32.5506 14.5677 32.5506 10.7844ZM40.5592 10.7844C40.5592 8.6971 39.9133 7.39251 38.6217 7.39251C37.33 7.39251 36.727 8.6971 36.727 10.7844C36.727 12.8718 37.33 14.2198 38.6217 14.2198C39.9133 14.1764 40.5592 12.8718 40.5592 10.7844ZM49.6021 4.78305H45.6406V16.6983H49.9034V10.2188C49.9034 8.91423 50.42 7.95753 51.4536 7.95753C52.4868 7.95753 52.8742 8.74028 52.8742 9.9579V16.6983H57.0077V10.2188C57.0077 8.91423 57.5244 7.95753 58.5579 7.95753C59.5911 7.95753 59.9785 8.74028 59.9785 9.9579V16.6983H64.1121V9.21863C64.1121 6.479 62.9496 4.43516 60.1938 4.43516C58.73 4.43516 57.4815 4.9135 56.534 6.47901H56.4479C55.8881 5.17442 54.7689 4.43516 53.2619 4.43516C51.5396 4.43516 50.4632 5.17442 49.6881 6.56598H49.6021V4.78305ZM69.322 15.1332H69.2788V16.6987H65.3177V0H69.4513V6.00112H69.5373C70.3124 4.95745 71.3888 4.3921 72.8958 4.3921C75.8665 4.3921 77.5888 7.08828 77.5888 10.6976C77.5888 14.7419 75.7373 17.0901 72.6373 17.0901C71.3456 17.0901 70.0107 16.4813 69.322 15.1332ZM73.3263 10.6541C73.3263 8.74075 72.6373 7.47965 71.3888 7.47965C70.0971 7.47965 69.322 8.74075 69.322 10.6541C69.322 12.5675 70.14 13.8287 71.3888 13.8287C72.6373 13.8287 73.3263 12.611 73.3263 10.6541ZM84.046 4.43516C80.5154 4.43516 78.0612 7.00084 78.0612 10.7406C78.0612 14.524 80.5154 17.0462 84.1752 17.0897C87.146 17.0897 89.2559 15.7416 89.9446 13.002H85.9406C85.6822 13.7847 85.0363 14.1326 84.3044 14.1326C83.0556 14.1326 82.3669 13.3498 82.1945 11.8713H90.1171C90.1599 9.43606 89.5573 7.34873 88.1795 6.00066C87.146 5.00048 85.8114 4.43516 84.046 4.43516ZM85.9835 9.47955H82.1945C82.3237 8.08799 82.9696 7.26176 84.132 7.30524C85.1224 7.30524 85.8975 8.04451 85.9835 9.47955ZM94.8092 6.82745H94.8953C95.7564 5.17498 96.876 4.52266 98.2969 4.52266C98.6415 4.52266 98.8567 4.56614 98.9857 4.65311V8.30598H98.8996C96.4454 7.87112 95.0245 9.04525 95.0245 11.7414V16.7423H90.8481V4.78357H94.8092V6.82745ZM103.423 16.7415H99.4183C99.806 19.3942 102.002 20.6987 105.188 20.6553C106.867 20.6553 108.331 20.2639 109.364 19.3507C110.355 18.481 111.001 17.0024 111.001 15.089V4.7393H107.04V6.04388H106.953C106.308 5.0437 105.36 4.39141 103.767 4.39141C101.012 4.39141 99.203 7.04406 99.203 10.4795C99.203 14.2193 101.442 16.1327 103.982 16.1327C105.274 16.1327 106.178 15.5674 106.824 14.7846H106.91V15.6544C106.91 16.9155 106.437 17.7417 105.102 17.7417C104.112 17.7417 103.595 17.2633 103.423 16.7415ZM105.188 7.60938C106.394 7.60938 107.082 8.82699 107.082 10.3055C107.082 11.871 106.351 13.0452 105.188 13.0452C104.026 13.0452 103.294 11.9145 103.294 10.3055C103.294 8.65305 104.026 7.60938 105.188 7.60938Z" fill="#1D253B"/>
</g>
<defs>
<clipPath id="clip0_4258_25710">
<rect width="111" height="21" fill="white"/>
</clipPath>
</defs>
</svg>
