<svg width="36" height="29" viewBox="0 0 36 29" fill="none" xmlns="http://www.w3.org/2000/svg">
<g clip-path="url(#clip0_4258_25736)">
<path fill-rule="evenodd" clip-rule="evenodd" d="M19.3081 4.67827C19.3733 4.64216 19.4318 4.60975 19.4767 4.5746C20.1721 4.28302 19.8822 4.13537 19.3315 4.10784L18.3599 4.10951C18.2852 3.45479 18.3868 2.79189 18.654 2.19053C19.4781 0.328312 21.6468 -0.509103 23.4979 0.320067C25.3486 1.14905 26.1811 3.33076 25.3568 5.19297L20.201 17.0843L18.6552 6.17541C18.5266 5.11111 18.9949 4.85175 19.3081 4.67827ZM30.7247 11.5097C32.4207 10.4006 32.9027 8.11661 31.8015 6.40863C30.7002 4.70062 28.4327 4.21512 26.7369 5.32441C26.1403 5.71301 25.6695 6.2693 25.3825 6.92468L20.2792 18.6466L30.7247 11.5097ZM5.32387 11.5082C3.63182 10.4 3.1508 8.11845 4.24969 6.41195C5.34858 4.70563 7.61118 4.22051 9.30304 5.3287C9.89837 5.71715 10.3681 6.27283 10.6543 6.92726L15.7461 18.6381L5.32387 11.5082ZM4.31478 19.8033C2.29493 19.8033 0.657468 18.153 0.657468 16.1175C0.657468 14.0819 2.29493 12.4315 4.31478 12.4315C5.05245 12.4315 5.73923 12.6517 6.31383 13.0304L16.2773 19.8033H4.31478ZM35.4018 16.1186C35.4018 18.1564 33.7605 19.8082 31.7358 19.8082V19.8084H19.7459L29.7325 13.0285C30.3085 12.6494 30.9967 12.429 31.7358 12.429C33.7605 12.429 35.4018 14.0808 35.4018 16.1186ZM10.6884 5.19562C9.86599 3.33508 10.6967 1.15526 12.5437 0.327029C14.3908 -0.501202 16.555 0.335463 17.3773 2.19599C17.6674 2.84935 17.7615 3.5741 17.6481 4.28082L15.8334 17.0764L10.6884 5.19562ZM0 24.9893C0 26.1579 0.946527 28.2852 4.56071 28.2852C7.89288 28.2852 8.9453 26.742 8.9453 26.0342H6.36557C6.36557 26.0342 6.24305 26.9693 4.78781 26.9693C3.33166 26.9693 2.93786 25.7424 2.93786 25.0329C2.93786 24.3262 3.33166 23.1656 4.78781 23.1656C6.24305 23.1656 6.36557 23.9797 6.36557 23.9797H8.9453C8.9453 23.2711 8.17312 21.7496 4.56071 21.7496C0.946527 21.7496 0 24.015 0 24.9893ZM31.6141 28.2852C28.001 28.2852 27.0536 26.1579 27.0536 24.9893C27.0536 24.015 28.001 21.7496 31.6141 21.7496C35.2274 21.7496 35.9989 23.2711 35.9989 23.9797H33.4209C33.4209 23.9797 33.2979 23.1656 31.8423 23.1656C30.3859 23.1656 29.9918 24.3262 29.9918 25.0329C29.9918 25.7424 30.3859 26.9693 31.8423 26.9693C33.2979 26.9693 33.4209 26.0342 33.4209 26.0342H35.9989C35.9989 26.742 34.946 28.2852 31.6141 28.2852ZM15.9956 25.8139V21.8576H18.3111V28.1241H14.8811L11.9314 24.1222V28.1241H9.61607V21.8576H12.9933L15.9956 25.8139ZM26.6138 23.3419C26.6138 24.2987 25.7325 24.7926 25.311 24.7926C25.311 24.7926 26.8368 25.0417 26.8368 26.2278C26.8368 27.4139 25.942 28.1241 23.7146 28.1241H19.0836V21.8576H23.7146C24.1003 21.8576 26.6138 21.9795 26.6138 23.3419ZM23.4161 26.6354V26.6271C23.8282 26.6271 24.1611 26.3726 24.1611 26.0586C24.1611 25.7439 23.8282 25.4884 23.4161 25.4884V25.4846H21.487V26.6354H23.4161ZM23.3636 23.0764H21.5047V24.0142H23.3636V24.0114C23.6786 24.0114 23.9339 23.804 23.9339 23.5456C23.9339 23.2882 23.6786 23.079 23.3636 23.079V23.0764Z" fill="#1D253B"/>
</g>
<defs>
<clipPath id="clip0_4258_25736">
<rect width="36" height="28.2857" fill="white"/>
</clipPath>
</defs>
</svg>
