<svg width="68" height="32" viewBox="0 0 68 32" fill="none" xmlns="http://www.w3.org/2000/svg">
<g id="Forbes_logo">
<path id="Vector" d="M7.39552 9.58469H8.81801C9.68429 9.45707 10.569 9.56928 11.376 9.90912C12.3884 10.5182 13.1228 11.4989 13.4224 12.6418C13.6345 13.2407 13.6345 13.2407 14.1461 13.0286H14.5454V8.28699H1.15657V9.12301H1.7056C1.94418 9.12136 2.1801 9.17318 2.39603 9.27467C2.61196 9.37615 2.80241 9.52473 2.95339 9.70947C3.46498 10.533 3.55233 11.4564 3.55233 16.2604C3.55233 21.3638 3.44003 22.6116 2.95339 23.248C2.83325 23.4116 2.67771 23.546 2.49838 23.641C2.31904 23.7361 2.12055 23.7894 1.91772 23.797C1.15657 23.9343 1.15657 23.9218 1.15657 24.2587C1.11448 24.3714 1.11448 24.4954 1.15657 24.6081H9.60412C9.66002 24.4979 9.68915 24.3761 9.68915 24.2525C9.68915 24.1289 9.66002 24.0071 9.60412 23.8969C9.39951 23.8399 9.19098 23.7982 8.98022 23.7721C8.75222 23.745 8.52685 23.6991 8.30641 23.6348C7.99074 23.4044 7.74067 23.0955 7.58092 22.7388C7.42117 22.3821 7.35726 21.9899 7.39552 21.6009C7.27075 20.7774 7.20836 19.2676 7.20836 18.0198V17.034H7.70747C8.32931 17.015 8.9508 17.0822 9.5542 17.2337C9.84328 17.4123 10.0893 17.6525 10.2748 17.9373C10.4603 18.222 10.5807 18.5441 10.6273 18.8807L10.7396 19.2676H11.5008V13.7398H10.802L10.6897 14.2764C10.6424 14.6206 10.5151 14.949 10.3179 15.235C10.1207 15.5211 9.85911 15.7569 9.5542 15.9235C9.25892 16.0114 8.94782 16.0327 8.64332 15.9859H7.20836V14.6382C7.20836 13.2407 7.28322 10.2959 7.33314 9.83425L7.39552 9.58469ZM65.7922 19.4797C65.2023 18.5304 64.2824 17.8326 63.2092 17.5206C62.3865 17.2635 61.626 16.8386 60.9757 16.2729C60.8293 16.1313 60.7199 15.9561 60.6568 15.7625C60.5937 15.569 60.579 15.3629 60.6138 15.1623C60.6148 14.7689 60.7719 14.3919 61.0505 14.1142C61.2394 13.9164 61.4785 13.7735 61.7422 13.701C62.0059 13.6285 62.2844 13.629 62.5479 13.7024C63.0934 13.8579 63.5867 14.158 63.9755 14.571C64.3643 14.9839 64.6342 15.4944 64.7565 16.0483C64.9561 16.6098 64.9811 16.6098 65.3429 16.46L65.5676 16.3727V13.2657L65.4053 13.1908C64.1769 12.7594 62.8738 12.5811 61.5746 12.6667C60.4558 12.6951 59.3879 13.1401 58.5799 13.9145C58.2135 14.2575 57.9265 14.6765 57.739 15.1421C57.5514 15.6076 57.468 16.1085 57.4943 16.6098C57.5013 17.3761 57.8055 18.1097 58.3428 18.6561C58.9366 19.2401 59.6652 19.6687 60.4641 19.9039C62.3982 20.6651 62.9597 21.1517 62.9597 22.0377C62.968 22.4113 62.849 22.7766 62.6222 23.0736C62.3955 23.3707 62.0744 23.5818 61.7119 23.6723C61.2762 23.768 60.8249 23.768 60.3892 23.6723C59.8188 23.4509 59.3094 23.0964 58.9036 22.6385C58.4977 22.1806 58.2071 21.6323 58.0558 21.0394L57.8936 20.6401H57.669C57.5617 20.6481 57.4563 20.6734 57.3571 20.715H57.2323V24.2587H57.4444C58.2874 24.5392 59.1572 24.7315 60.0398 24.8327H61.2876C61.8288 24.8724 62.3727 24.8218 62.8973 24.683C63.5632 24.5601 64.1854 24.2651 64.702 23.8273C65.2186 23.3895 65.6116 22.8241 65.8421 22.1874C65.991 21.8317 66.0673 21.4499 66.0667 21.0644C66.1158 20.5212 66.0212 19.9747 65.7922 19.4797ZM54.038 13.0286C53.2902 12.7147 52.4846 12.5624 51.6739 12.5817C50.8631 12.6011 50.0657 12.7916 49.3338 13.1409C48.6458 13.4774 48.0361 13.9544 47.5439 14.5412C47.0517 15.1279 46.688 15.8114 46.4763 16.5474C46.2064 17.3503 46.0921 18.1972 46.1394 19.043C46.1305 19.5031 46.1681 19.963 46.2517 20.4155C46.4532 21.5283 46.9905 22.5528 47.7912 23.3513C48.592 24.1499 49.618 24.6842 50.7313 24.8826C51.4563 24.974 52.1899 24.974 52.9149 24.8826C53.6673 24.75 54.3873 24.4747 55.0362 24.0716C55.5729 23.7707 56.0272 23.3421 56.3589 22.8238C56.3376 22.7424 56.3001 22.6662 56.2486 22.5998C56.1971 22.5333 56.1328 22.4779 56.0594 22.4369C55.917 22.4885 55.7825 22.5599 55.6601 22.6491C55.0395 23.0581 54.3066 23.2631 53.5638 23.2355C53.0708 23.2689 52.5765 23.1921 52.1168 23.0108C51.6572 22.8295 51.2436 22.5483 50.906 22.1874C50.6449 21.9448 50.4294 21.6575 50.2696 21.3389C49.8819 20.5632 49.673 19.7104 49.6582 18.8433V18.3567H56.571V18.1071C56.5862 17.8578 56.5862 17.6078 56.571 17.3584C56.5685 16.4774 56.3328 15.6127 55.8879 14.8522C55.443 14.0917 54.8048 13.4625 54.038 13.0286ZM50.5566 17.346H49.6832V16.6098C49.9702 14.7256 50.6814 13.6026 51.5549 13.6026C52.4283 13.6026 52.8026 14.7131 52.9649 16.747V17.321H52.2162L50.5566 17.346ZM32.6134 12.6168C32.1822 12.6001 31.7536 12.6901 31.3656 12.8789C30.5223 13.2884 29.8411 13.9696 29.4315 14.8129L29.2693 15.1124V12.6168H29.2069C29.0572 12.6168 24.4404 13.5402 24.2906 13.6026C24.1409 13.665 24.1908 13.6775 24.1908 13.9021C24.1908 14.1267 24.1908 14.1641 24.2906 14.1766L24.7773 14.2764C24.9136 14.2797 25.0473 14.3141 25.1684 14.3767C25.2894 14.4394 25.3946 14.5289 25.476 14.6382C25.788 15.05 25.8504 15.7737 25.8504 18.8558C25.912 20.2433 25.8535 21.6335 25.6757 23.0109C25.6338 23.2186 25.5285 23.4082 25.3743 23.5535C25.22 23.6988 25.0245 23.7926 24.8147 23.822L24.3904 23.9093H24.2282V24.2587C24.183 24.3751 24.183 24.5042 24.2282 24.6206H31.2034V24.2587C31.2276 24.1393 31.2276 24.0163 31.2034 23.8969C30.7834 23.8805 30.3658 23.8262 29.9556 23.7346C29.7322 23.6178 29.5495 23.436 29.4314 23.2133C29.3134 22.9906 29.2655 22.7373 29.2943 22.4869C29.1944 21.7631 29.1445 19.6419 29.1695 18.0198C29.1944 16.3976 29.1695 16.2978 29.3067 16.1855C29.7243 15.8654 30.241 15.702 30.7667 15.7238C31.2622 15.7346 31.7487 15.8584 32.1891 16.0857C32.3418 16.1705 32.5056 16.2335 32.6758 16.2729C32.6758 16.2729 33.9236 13.2532 33.9236 13.1159C33.7639 12.9304 33.5605 12.7876 33.3317 12.7004C33.1029 12.6133 32.856 12.5845 32.6134 12.6168ZM24.2033 17.8576C24.1597 16.9659 23.9037 16.0975 23.4566 15.3248C23.0095 14.5522 22.3842 13.8975 21.6328 13.4154C20.7399 12.9337 19.7465 12.6681 18.7323 12.6399C17.7181 12.6118 16.7114 12.8218 15.7932 13.2532C14.4948 13.9378 13.5145 15.1017 13.0605 16.4975C12.5915 18.0602 12.5915 19.7262 13.0605 21.289C13.3063 22.1431 13.7659 22.9204 14.3956 23.5475C15.18 24.3128 16.1914 24.8032 17.278 24.945C17.9756 25.0033 18.6768 25.0033 19.3743 24.945C19.631 24.906 19.8852 24.8518 20.1355 24.7828C21.1511 24.4987 22.0649 23.9312 22.7698 23.1467C23.4747 22.3623 23.9416 21.3933 24.1159 20.3531C24.2405 19.5274 24.2698 18.69 24.2033 17.8576ZM19.0125 24.0965C17.7647 24.4708 16.8288 23.2605 16.5169 20.715C16.4023 19.3823 16.4023 18.0423 16.5169 16.7096C16.7664 14.6632 17.4028 13.6275 18.3886 13.6275C18.5874 13.6152 18.7864 13.6507 18.9687 13.731C19.1511 13.8113 19.3116 13.9342 19.4367 14.0892C20.2727 14.9252 20.6845 16.5848 20.6845 19.0804C20.7883 20.4927 20.5663 21.9101 20.0357 23.2231C19.8013 23.606 19.4388 23.8934 19.0125 24.0341V24.0965ZM41.4727 12.8664C41.1206 12.8211 40.7642 12.8211 40.4121 12.8664C39.7362 12.8658 39.0681 13.0105 38.453 13.2906L38.0662 13.4528V10.7451C38.1338 9.83134 38.1338 8.9138 38.0662 8C37.9165 8 33.1499 8.91089 33.0751 8.94832C33.0383 9.04045 33.0383 9.14319 33.0751 9.23531C33.0751 9.49735 33.0751 9.48487 33.6366 9.60965C33.7942 9.64501 33.9457 9.7039 34.0858 9.78434C34.3293 10.0134 34.4915 10.3157 34.5475 10.6453C34.6895 11.5949 34.7355 12.5564 34.6847 13.5152V24.4708L35.0216 24.5457C35.5207 24.658 36.9307 24.8951 37.3924 24.945C38.3143 25.0183 39.2406 25.0183 40.1625 24.945C41.1858 24.8405 42.1612 24.4587 42.9835 23.8409C43.8059 23.223 44.444 22.3925 44.8293 21.4387C45.0589 20.8266 45.218 20.1903 45.3034 19.5421C45.3777 18.6641 45.3484 17.7804 45.2161 16.9092C45.0822 15.9327 44.6512 15.021 43.9816 14.2978C43.3119 13.5746 42.436 13.0749 41.4727 12.8664ZM38.2035 23.8844C38.2035 23.7222 38.0787 18.2568 38.1037 16.0732V14.3637L38.4655 14.2764C38.7097 14.2414 38.9576 14.2414 39.2017 14.2764C39.4717 14.2489 39.7433 14.3103 39.9754 14.4511C40.4413 14.7727 40.8283 15.1958 41.1071 15.6886C41.3859 16.1814 41.5493 16.731 41.585 17.296C41.6759 18.2047 41.6759 19.1201 41.585 20.0287C41.5103 21.3493 41.0015 22.6083 40.1376 23.6099C39.8924 23.8428 39.5844 23.9989 39.2516 24.0591C38.9998 24.1029 38.7423 24.1029 38.4905 24.0591C38.2534 24.0591 38.2534 23.9842 38.2534 23.8844H38.2035Z" fill="#1D253B"/>
</g>
</svg>
