<svg role="img" aria-label="Passport Photo Online" width="151" height="27" viewBox="0 0 151 27" fill="none" xmlns="http://www.w3.org/2000/svg" data-testid="navbar-logo"><title>Passport Photo Online</title><path d="M43.6773 3.57031C41.4549 3.57031 39.6963 5.23562 39.5417 7.4138L39.5264 7.79802V15.5596H40.8888V10.8209C41.6211 11.4801 42.5926 11.8794 43.677 11.8794C45.9964 11.8794 47.8135 10.0546 47.8135 7.72486C47.8135 5.39515 45.9968 3.57031 43.6773 3.57031ZM43.6773 10.5808C42.0969 10.5808 40.8588 9.32687 40.8588 7.72486C40.8588 6.12286 42.0969 4.86835 43.6773 4.86835C45.25 4.86835 46.4814 6.12286 46.4814 7.72486C46.4814 9.32687 45.25 10.5808 43.6773 10.5808Z" fill="#213240"></path><path d="M77.1571 3.57031C74.9344 3.57031 73.1758 5.23562 73.0212 7.4138L73.0059 7.79802V15.5596H74.3686V10.8209C75.1006 11.4801 76.072 11.8794 77.1568 11.8794C79.4759 11.8794 81.293 10.0546 81.293 7.72486C81.293 5.39515 79.4762 3.57031 77.1571 3.57031ZM77.1571 10.5808C75.5764 10.5808 74.3383 9.32687 74.3383 7.72486C74.3383 6.12286 75.5764 4.86835 77.1571 4.86835C78.7295 4.86835 79.9609 6.12286 79.9609 7.72486C79.9609 9.32687 78.7292 10.5808 77.1571 10.5808Z" fill="#213240"></path><path d="M101.2 11.7534L101.448 11.7148V10.4334L101.13 10.4615C100.83 10.4884 100.516 10.513 100.252 10.513C99.5087 10.513 99.2616 10.3745 99.2616 9.55605V5.04384H101.448V3.73039H99.2616V0.015625L97.9292 0.714599V3.73039H96.3154V5.04384H97.9292V9.55605C97.9292 10.3248 98.123 10.8824 98.5216 11.2605C98.9019 11.6216 99.4487 11.7966 100.194 11.7966C100.491 11.7966 100.83 11.8102 101.2 11.7534Z" fill="#213240"></path><path d="M114.747 3.57031C112.524 3.57031 110.766 5.23562 110.611 7.4138L110.596 7.79802V15.5596H111.958V10.8209C112.69 11.4801 113.662 11.8794 114.746 11.8794C117.066 11.8794 118.883 10.0546 118.883 7.72486C118.883 5.39515 117.066 3.57031 114.747 3.57031ZM114.747 10.5808C113.166 10.5808 111.928 9.32687 111.928 7.72486C111.928 6.12286 113.166 4.86835 114.747 4.86835C116.319 4.86835 117.551 6.12286 117.551 7.72486C117.551 9.32687 116.319 10.5808 114.747 10.5808Z" fill="#213240"></path><path d="M120.065 11.7156H121.383V7.51659C121.383 5.8581 122.234 4.86712 123.659 4.86712C124.844 4.86712 125.524 5.57972 125.524 6.82127V11.7156H126.857V6.82127C126.857 4.84584 125.625 3.56912 123.718 3.56912C122.757 3.56912 121.965 3.88882 121.384 4.50389V0H120.066V11.7156H120.065Z" fill="#213240"></path><path d="M136.325 7.72486C136.325 5.39515 134.507 3.57031 132.188 3.57031C129.861 3.57031 128.037 5.39515 128.037 7.72486C128.037 10.0546 129.861 11.8794 132.188 11.8794C134.508 11.8794 136.325 10.0546 136.325 7.72486ZM132.189 4.86835C133.761 4.86835 134.993 6.12286 134.993 7.72486C134.993 9.32687 133.761 10.5808 132.189 10.5808C130.608 10.5808 129.37 9.32687 129.37 7.72486C129.37 6.12286 130.608 4.86835 132.189 4.86835Z" fill="#213240"></path><path d="M141.642 11.7534L141.89 11.7148V10.4334L141.573 10.4615C141.273 10.4884 140.959 10.513 140.694 10.513C139.951 10.513 139.704 10.3745 139.704 9.55605V5.04384H141.891V3.73039H139.704V0.015625L138.372 0.714599V3.73039H136.758V5.04384H138.372V9.55605C138.372 10.3248 138.566 10.8824 138.964 11.2605C139.344 11.6216 139.891 11.7966 140.637 11.7966C140.934 11.7966 141.272 11.8102 141.642 11.7534Z" fill="#213240"></path><path d="M151 7.72486C151 5.39515 149.183 3.57031 146.863 3.57031C144.535 3.57031 142.712 5.39515 142.712 7.72486C142.712 10.0546 144.535 11.8794 146.863 11.8794C149.183 11.8794 151 10.0546 151 7.72486ZM146.863 4.86835C148.436 4.86835 149.667 6.12286 149.667 7.72486C149.667 9.32687 148.436 10.5808 146.863 10.5808C145.282 10.5808 144.045 9.32687 144.045 7.72486C144.045 6.12286 145.282 4.86835 146.863 4.86835Z" fill="#213240"></path><path d="M55.6115 4.84864C54.896 4.06939 53.8991 3.63672 52.7688 3.63672C50.4873 3.63672 48.7002 5.45106 48.7002 7.7672C48.7002 10.0836 50.4873 11.898 52.7688 11.898C53.8991 11.898 54.896 11.4653 55.6115 10.6861V11.7363H56.9393V3.79845H55.6115V4.84864ZM52.8269 10.6034C51.2572 10.6034 50.0274 9.35778 50.0274 7.7672C50.0274 6.17692 51.2572 4.93107 52.8269 4.93107C54.3883 4.93107 55.6115 6.17692 55.6115 7.7672C55.6115 9.35778 54.388 10.6034 52.8269 10.6034Z" fill="#213240"></path><path d="M61.801 7.145C60.727 6.86787 60.0688 6.66449 60.0688 6.01825C60.0688 5.26678 60.8011 4.93073 61.5267 4.93073C62.2915 4.93073 62.8882 5.27944 63.1224 5.86365L63.2477 6.17629L64.3789 5.52448L64.2721 5.28191C63.8199 4.25176 62.7933 3.63672 61.5264 3.63672C59.9209 3.63672 58.7554 4.63817 58.7554 6.01859C58.7554 7.66134 60.2298 8.04618 61.415 8.35571C62.5055 8.64025 63.1736 8.84887 63.1736 9.5164C63.1736 10.3182 62.3527 10.6033 61.5846 10.6033C60.6422 10.6033 59.9448 10.1957 59.7182 9.51147L59.605 9.16827L58.4541 9.84291L58.5407 10.0756C58.9654 11.2165 60.1034 11.8979 61.5843 11.8979C63.2933 11.8979 64.4864 10.9184 64.4864 9.5164C64.487 7.83817 62.9978 7.45392 61.801 7.145Z" fill="#213240"></path><path d="M69.0149 7.145C67.9409 6.86787 67.2827 6.66449 67.2827 6.01825C67.2827 5.26678 68.015 4.93073 68.7406 4.93073C69.5057 4.93073 70.1021 5.27944 70.3363 5.86365L70.4615 6.17629L71.5928 5.52448L71.4859 5.28191C71.0334 4.25176 70.0072 3.63672 68.7403 3.63672C67.1348 3.63672 65.9692 4.63817 65.9692 6.01859C65.9692 7.66134 67.4437 8.04618 68.6288 8.35571C69.7194 8.64025 70.3874 8.84887 70.3874 9.5164C70.3874 10.3182 69.5666 10.6033 68.7985 10.6033C67.8561 10.6033 67.1584 10.1957 66.9321 9.51147L66.8188 9.16827L65.668 9.84291L65.7546 10.0756C66.1793 11.2165 67.3173 11.8979 68.7981 11.8979C70.5071 11.8979 71.7002 10.9184 71.7002 9.5164C71.7005 7.83817 70.2114 7.45392 69.0149 7.145Z" fill="#213240"></path><path d="M86.3045 3.63672C83.9902 3.63672 82.1777 5.45106 82.1777 7.7672C82.1777 10.0836 83.9905 11.898 86.3045 11.898C88.6102 11.898 90.4168 10.0836 90.4168 7.7672C90.4168 5.45106 88.6105 3.63672 86.3045 3.63672ZM86.3045 10.6034C84.7348 10.6034 83.5052 9.35778 83.5052 7.7672C83.5052 6.17692 84.7348 4.93107 86.3045 4.93107C87.8659 4.93107 89.0893 6.17692 89.0893 7.7672C89.0893 9.35778 87.8659 10.6034 86.3045 10.6034Z" fill="#213240"></path><path d="M92.8948 4.5397V3.79808H91.582V11.7359H92.8948V7.35545C92.8948 5.16029 94.5349 4.98966 95.038 4.98966H95.33V3.69531H95.038C94.1409 3.69531 93.4153 3.98358 92.8948 4.5397Z" fill="#213240"></path><path d="M108.804 6.25391H102.971V7.54792H108.804V6.25391Z" fill="#213240"></path><path fill-rule="evenodd" clip-rule="evenodd" d="M15.7197 9.28516C13.0319 9.28516 10.9268 11.4183 10.9268 14.1418C10.9268 16.8656 13.0319 18.9994 15.7197 18.9994C18.394 18.9994 20.4891 16.8656 20.4891 14.1418C20.4891 11.4183 18.394 9.28516 15.7197 9.28516Z" fill="#213240"></path><path fill-rule="evenodd" clip-rule="evenodd" d="M31.2957 16.9905L27.8912 4.22719C27.4139 2.44155 25.6774 1.36666 24.0097 1.81755L20.3082 2.82148C19.4534 3.05417 18.2508 2.71378 17.615 2.0626L16.4733 0.89201C15.8371 0.238986 14.6342 -0.100484 13.7794 0.131592L10.4894 1.01915C9.63336 1.25185 8.76172 2.15272 8.53609 3.03843L8.14053 4.62621C7.91305 5.51131 7.03376 6.414 6.17865 6.6467L2.35502 7.68367C0.644811 8.14689 -0.357863 9.964 0.118522 11.7506L3.52363 24.5132C3.99849 26.2905 5.76932 27.3555 7.47891 26.8935L29.058 21.0472C30.7688 20.5837 31.7703 18.7684 31.2957 16.9905ZM15.7192 21.2061C11.7609 21.2061 8.65977 18.1024 8.65977 14.1401C8.65977 10.1781 11.7609 7.07447 15.7192 7.07447C19.6641 7.07447 22.7542 10.1781 22.7542 14.1401C22.7539 18.1024 19.6638 21.2061 15.7192 21.2061Z" fill="#213240"></path><path d="M38.2275 24.9883C37.696 24.9883 37.2793 25.4083 37.2793 25.9441C37.2793 26.4798 37.6957 26.8998 38.2275 26.8998C38.7501 26.8998 39.1757 26.4712 39.1757 25.9441C39.1757 25.417 38.7501 24.9883 38.2275 24.9883Z" fill="#213240"></path><path d="M43.6511 18.6523C41.3369 18.6523 39.5244 20.4667 39.5244 22.7828C39.5244 25.0993 41.3372 26.9136 43.6511 26.9136C45.9571 26.9136 47.7635 25.0993 47.7635 22.7828C47.7635 20.4667 45.9571 18.6523 43.6511 18.6523ZM43.6511 25.619C42.0815 25.619 40.8519 24.3734 40.8519 22.7828C40.8519 21.1925 42.0815 19.9467 43.6511 19.9467C45.2129 19.9467 46.436 21.1925 46.436 22.7828C46.436 24.3734 45.2129 25.619 43.6511 25.619Z" fill="#213240"></path><path d="M52.5598 18.6523C51.6064 18.6523 50.8196 18.9696 50.2418 19.5788V18.814H48.9287V26.7519H50.2418V22.5776C50.2418 20.9302 51.0865 19.9467 52.5016 19.9467C53.6782 19.9467 54.3529 20.6537 54.3529 21.8866V26.7522H55.6808V21.8866C55.6805 19.922 54.4555 18.6523 52.5598 18.6523Z" fill="#213240"></path><path d="M58.4652 15.4336H57.1523V26.7519H58.4652V15.4336Z" fill="#213240"></path><path d="M61.4398 18.8125H60.127V26.7503H61.4398V18.8125Z" fill="#213240"></path><path d="M60.7822 15.875C60.2997 15.875 59.9072 16.2642 59.9072 16.7425C59.9072 17.2286 60.2997 17.6245 60.7822 17.6245C61.265 17.6245 61.6575 17.2286 61.6575 16.7425C61.6579 16.2642 61.265 15.875 60.7822 15.875Z" fill="#213240"></path><path d="M66.7313 18.6523C65.778 18.6523 64.9914 18.9696 64.4134 19.5788V18.814H63.1006V26.7519H64.4134V22.5776C64.4134 20.9302 65.2584 19.9467 66.6735 19.9467C67.85 19.9467 68.5248 20.6537 68.5248 21.8866V26.7522H69.8526V21.8866C69.8523 19.922 68.6271 18.6523 66.7313 18.6523Z" fill="#213240"></path><path d="M74.8967 18.6523C72.5393 18.6523 70.8281 20.3895 70.8281 22.7828C70.8281 25.1764 72.5637 26.9136 74.9549 26.9136C76.4483 26.9136 77.6981 26.2562 78.3835 25.11L78.5357 24.856L77.3809 24.1681L77.2357 24.4351C76.8331 25.1767 75.986 25.6193 74.9696 25.6193C73.5643 25.6193 72.4958 24.7647 72.2199 23.4596H78.7757V23.1655C78.7757 23.1127 78.7794 23.0599 78.7825 23.0072C78.7865 22.9424 78.7898 22.8772 78.7898 22.8124C78.7901 20.7957 77.4256 18.6523 74.8967 18.6523ZM74.8967 19.9467C75.9814 19.9467 77.1359 20.6315 77.4066 22.1508H72.2135C72.4652 20.8194 73.5089 19.9467 74.8967 19.9467Z" fill="#213240"></path></svg>