<svg width="56" height="26" viewBox="0 0 56 26" fill="none" xmlns="http://www.w3.org/2000/svg">
<path d="M2.61709 25.0588C1.2042 25.0588 0 24.1399 0 22.0571C0 18.8425 2.67047 16.4008 3.88195 15.7101C3.88195 15.7101 5.57693 16.722 7.3356 17.3731C3.84191 15.0829 1.60883 10.9098 1.60883 6.27789C1.60883 1.94892 3.81461 0 5.80563 0C7.40719 0 11.2054 1.82573 11.2054 8.83077C11.2054 16.3688 7.40901 25.0588 2.61769 25.0588H2.61709Z" fill="#1D253B"/>
<path d="M37.4038 20.0488H35.7488V13.9029C35.7488 12.7182 35.5723 11.8609 35.2192 11.3318C34.8661 10.8026 34.2722 10.5374 33.4387 10.5374C32.7326 10.5374 32.132 10.8717 31.6376 11.5411C31.1431 12.2104 30.8962 13.0117 30.8962 13.945V20.0494H29.2413V13.6942C29.2413 11.5901 28.4575 10.5374 26.8905 10.5374C26.1638 10.5374 25.5656 10.8529 25.0948 11.4832C24.6241 12.1136 24.3887 12.9344 24.3887 13.945V20.0494H22.7344V9.34514H24.3893V11.0383H24.43C25.1634 9.74234 26.2323 9.09375 27.6385 9.09375C28.3447 9.09375 28.9604 9.29738 29.4852 9.70526C30.0099 10.1131 30.3697 10.648 30.565 11.3098C31.3318 9.83221 32.4753 9.09375 33.9956 9.09375C36.2693 9.09375 37.4062 10.5468 37.4062 13.4523V20.0482L37.4038 20.0488ZM56 20.0488H54.3451V13.9444C54.3451 11.6724 53.5449 10.5367 51.9439 10.5367C51.1165 10.5367 50.4322 10.8592 49.8904 11.5033C49.3487 12.1482 49.0781 12.9614 49.0781 13.9444V20.0488H47.4238V9.34514H49.0787V11.1219H49.1194C49.8995 9.76999 51.0297 9.09375 52.5093 9.09375C53.6395 9.09375 54.504 9.4721 55.1022 10.2282C55.7009 10.9842 56 12.0765 56 13.5051V20.0482V20.0488Z" fill="#1D253B"/>
<path d="M39.2109 17.803V19.6395C39.2109 19.6395 40.0894 20.2969 41.8038 20.2969C44.4057 20.2969 45.5486 18.7929 45.5486 17.1519C45.5486 13.5954 40.9259 14.4457 40.9259 12.0851C40.9259 11.1983 41.6078 10.5567 42.752 10.5567C44.0884 10.5567 45.0724 11.2951 45.0724 11.2951V9.59572C45.0724 9.59572 44.1576 9.07031 42.8381 9.07031C40.6135 9.07031 39.2273 10.5095 39.2273 12.2385C39.2273 15.7548 43.8354 15.0666 43.8354 17.3581C43.8354 18.4114 42.9995 18.7929 41.919 18.7929C40.3721 18.7929 39.2109 17.8024 39.2109 17.8024V17.803Z" fill="#1D253B"/>
<path d="M8.72266 22.6657C8.72266 23.758 9.09089 24.186 9.65447 24.186C11.0637 24.186 13.3089 20.7783 13.224 17.1998C15.3612 14.8643 17.9231 11.2053 17.9231 8.27536C17.9231 7.56581 17.729 6.96875 16.9173 6.96875C15.6767 6.96875 13.9034 9.18414 12.7787 11.3838C11.694 13.6627 10.6797 16.2627 9.33295 19.83C9.01809 20.7249 8.72326 21.8084 8.72326 22.665L8.72266 22.6657Z" fill="#1D253B"/>
</svg>
