<svg width="32" height="32" viewBox="0 0 32 32" fill="none" xmlns="http://www.w3.org/2000/svg">
<g id="Frame">
<path id="Vector" d="M23.7157 4C25.5312 4 27.0441 4.73353 28.2544 6.20057C29.4182 7.66762 30 9.68482 30 12.2521C30 15.7364 29.1155 18.831 27.3466 21.5358C25.5312 24.2407 23.064 26.3954 19.9451 28L18.0599 24.6991C20.3873 23.3697 22.1796 21.6962 23.4364 19.6791C24.6933 17.7077 25.3217 15.4155 25.3217 12.8023L23.995 7.4384L27.8354 11.9771C27.2302 12.6189 26.5553 13.1461 25.8105 13.5587C25.0192 14.0172 24.2277 14.2464 23.4364 14.2464C21.9933 14.2464 20.8296 13.7879 19.9451 12.8711C19.0142 11.9542 18.5486 10.7622 18.5486 9.29513C18.5486 7.73639 19.0374 6.45273 20.015 5.44413C20.9459 4.48138 22.1796 4 23.7157 4ZM7.65586 4C9.47132 4 10.9842 4.73353 12.1945 6.20057C13.3583 7.66762 13.9401 9.68482 13.9401 12.2521C13.9401 15.7364 13.0557 18.831 11.2868 21.5358C9.47132 24.2407 7.00416 26.3954 3.88529 28L2 24.6991C4.32751 23.3697 6.1197 21.6962 7.37656 19.6791C8.63342 17.7077 9.26185 15.4155 9.26185 12.8023L7.93516 7.4384L11.7756 11.9771C11.1704 12.6189 10.4954 13.1461 9.75062 13.5587C8.95927 14.0172 8.16792 14.2464 7.37656 14.2464C5.93351 14.2464 4.76975 13.7879 3.88529 12.8711C2.95428 11.9542 2.48878 10.7622 2.48878 9.29513C2.48878 7.73639 2.97756 6.45272 3.95511 5.44413C4.88612 4.48138 6.1197 4 7.65586 4Z" fill="black"/>
</g>
</svg>
