<svg width="170" height="32" viewBox="0 0 170 32" fill="none" xmlns="http://www.w3.org/2000/svg">
<g id="Frame">
<path id="Vector" d="M13.4714 9.36317C13.4714 7.503 11.7033 6.94127 10.2207 7.00573V7.17149C11.1047 7.23595 11.7862 7.59509 11.7862 8.19366C11.7862 8.60805 11.4915 9.12374 10.6074 9.12374C9.90758 9.12374 8.74728 8.70935 7.66065 8.35021C6.46351 7.93581 5.32162 7.54904 4.37312 7.54904C2.51295 7.54904 1.10401 8.93036 1.10401 10.6432C1.10401 12.0245 2.17222 12.5034 2.60504 12.6783L2.63266 12.6139C2.3564 12.4297 2.18143 12.2271 2.18143 11.6377C2.18143 11.1405 2.54058 10.4774 3.49829 10.4774C4.36391 10.4774 5.49659 10.8642 6.99761 11.2878C8.28684 11.6469 9.67736 11.9877 10.4509 12.089V15.1094L8.99592 16.3066L10.4509 17.559V21.6937C9.70499 22.1173 8.83937 22.2554 8.09346 22.2554C6.71214 22.2554 5.44133 21.8687 4.39154 20.7084L8.31447 18.8021V12.2731L3.52591 14.4096C4.02319 13.1388 4.95327 12.1903 5.97544 11.5733L5.94782 11.4996C3.10231 12.2731 0.514648 14.8792 0.514648 18.1023C0.514648 21.9608 3.59958 24.8247 7.16337 24.8247C11.0218 24.8247 13.2872 21.8042 13.2504 18.6088H13.1767C12.615 19.8335 11.6757 20.9938 10.6167 21.6016V17.5682L12.1361 16.3434L10.6167 15.1186V12.0982C12.0256 12.0982 13.4806 11.1681 13.4806 9.37238M5.39529 20.0085L4.28103 20.5702C3.59958 19.6862 3.14835 18.4338 3.14835 16.8223C3.14835 16.1592 3.22202 15.2568 3.44303 14.6214L5.41371 13.7373L5.38608 19.9993L5.39529 20.0085ZM23.3247 14.7043L22.5788 15.2936L20.3043 13.2677L17.6706 15.3028V7.43854L14.0884 9.9157C14.5028 10.0538 15 10.2748 15 11.2325V22.1081L13.7753 23.0382L13.8858 23.1487L14.5028 22.7251L16.6392 24.6773L19.5031 22.7711L19.411 22.633L18.6835 23.1118L17.689 22.1173V15.5607L18.3704 15.0634L19.9359 16.4263V22.1265C19.9359 25.7363 19.1348 26.4823 17.514 27.0716V27.1637C20.2122 27.2742 22.6433 26.3625 22.6433 21.7397V15.5238L23.4537 14.8608L23.3432 14.7227L23.3247 14.7043ZM28.1317 24.6497L32.2849 21.3161L32.1744 21.1596L30.0011 22.8816L27.5055 20.911V19.6862L31.8152 16.6473L29.642 13.2677L24.8534 15.9014V22.1633L23.9233 22.8908L24.0338 23.029L24.9179 22.3291L28.1409 24.6681H28.1317V24.6497ZM27.4963 19.4283V14.6858L29.5867 17.9549L27.4963 19.4283ZM49.4592 8.47913C49.4592 8.18445 49.3855 7.93581 49.275 7.59509H49.2106C48.9159 8.39625 48.5936 8.81985 47.6635 8.81985C46.8531 8.81985 46.2085 8.32258 45.8678 7.95423C45.8678 7.98186 43.142 11.1036 43.142 11.1036L43.2801 11.2141L44.0537 10.3301C44.643 10.7813 45.1679 11.3062 46.4756 11.3246V19.281L40.8951 9.61181C40.4622 8.88432 39.7163 7.79768 38.4455 7.79768C36.9445 7.79768 35.8118 9.08691 35.996 11.2694H36.0881C36.1986 10.7261 36.5209 10.0446 37.1747 10.0446C37.6996 10.0446 38.1232 10.5419 38.3719 10.9931V14.1057C36.6498 14.1057 35.6737 14.9068 35.6737 16.2605C35.6737 16.8223 36.0881 18.047 37.2576 18.2588V18.1944C37.1011 18.0378 36.9445 17.8997 36.9445 17.5774C36.9445 17.0525 37.3313 16.767 38.0311 16.767C38.1416 16.767 38.3074 16.7946 38.3719 16.8131V20.8465C36.3459 20.8741 34.7896 21.9792 34.7896 23.8946C34.7896 25.81 36.3551 26.5467 37.9851 26.4546V26.3902C36.9629 26.2797 36.438 25.7548 36.438 25.0089C36.438 24.1985 37.0274 23.7565 37.7733 23.7565C38.5192 23.7565 39.0901 24.2353 39.569 24.7786L42.2948 21.7121L42.1843 21.6016L41.4844 22.4028C40.4346 21.4727 39.7624 21.0399 38.556 20.8557V11.297L46.2546 24.7142H46.6689V11.3431C48.1423 11.251 49.4592 10.1459 49.4592 8.47913ZM52.0469 24.6313L56.2 21.2977L56.0895 21.1412L53.9162 22.8632L51.4207 20.8925V19.6678L55.7304 16.6289L53.5571 13.2493L48.7685 15.883V22.1449L47.8385 22.8724L47.949 23.0106L48.833 22.3107L52.0561 24.6497L52.0469 24.6313ZM51.4115 19.4099V14.6674L53.5019 17.9365L51.4115 19.4099ZM70.9524 14.3267L70.317 14.8055L68.5029 13.2585L66.3941 15.1647L67.2597 15.9751V23.0842L65.1049 21.6108V15.8461L65.8508 15.3212L63.6315 13.2585L61.5687 15.1647L62.4343 15.9751V22.8448L62.2962 22.9369L60.2703 21.4635V15.8185C60.2703 14.5017 59.6073 14.1149 58.7693 13.5992C58.0694 13.1664 57.701 12.7612 57.701 12.0982C57.701 11.3707 58.3364 11.076 58.539 10.9655C57.8115 10.9379 55.7948 11.6654 55.7488 13.5071C55.7212 14.4556 56.1816 14.87 56.6605 15.3212C57.1393 15.7725 57.5905 16.2053 57.5905 17.0064V22.5409L56.6144 23.3144L56.7249 23.4249L57.655 22.6975L60.0769 24.6681L62.3883 23.0566L64.9299 24.6681L69.9211 21.7213V15.3212L71.0353 14.4556L70.9432 14.3175L70.9524 14.3267ZM87.6663 8.94878L86.7178 9.8144L84.5814 7.95423L81.6991 10.2656V8.09236H81.5241V23.6828C81.211 23.6367 80.548 23.4526 79.8205 23.3421V10.2933C79.8205 9.34475 79.139 8.01869 77.4354 8.01869C75.7318 8.01869 74.6636 9.45526 74.6636 10.6984H74.7372C74.8293 10.1367 75.2161 9.63022 75.7778 9.63022C76.3396 9.63022 76.8645 9.98937 76.8645 11.2694V14.9897C75.2529 15.0542 74.2768 16.0579 74.2768 17.1446C74.2768 17.7616 74.6636 18.9127 75.8883 18.9587V18.8666C75.4739 18.6916 75.3911 18.4798 75.3911 18.2496C75.3911 17.7063 75.916 17.5221 76.6435 17.5221H76.8184V23.517C75.4371 23.9959 74.7925 24.926 74.7925 26.0771C74.7925 27.661 76.0633 28.8857 77.9235 28.8857C79.2403 28.8857 80.1704 28.6555 81.3768 28.3885C82.3529 28.1859 83.4119 27.9557 83.9828 27.9557C84.7103 27.9557 85.0326 28.278 85.0326 28.7937C85.0326 29.4567 84.784 29.7882 84.3972 29.9079V30C85.9627 29.7053 86.8744 28.8029 86.8744 27.3939C86.8744 25.985 85.4931 25.0549 83.946 25.0549C83.1448 25.0549 81.6991 25.3035 80.5203 25.5798C79.2035 25.8745 78.0708 26.0126 77.6564 26.0126C76.9934 26.0126 76.183 25.7179 76.183 24.8339C76.183 24.0327 76.8461 23.3973 78.476 23.3973C79.36 23.3973 80.2257 23.5354 81.3123 23.7841C82.4726 24.0327 83.2646 24.3734 84.2591 24.3734C85.6404 24.3734 86.7547 23.8762 86.7547 21.8502V10.0262L87.7768 9.09612L87.6663 8.95799V8.94878ZM83.7618 15.1923C83.5132 15.4686 83.2185 15.6896 82.7397 15.6896C82.2148 15.6896 81.9385 15.4133 81.6899 15.1923V10.5051L82.3713 9.96174L83.7526 11.1405V15.2015L83.7618 15.1923ZM83.7618 17.4116C83.5316 17.1814 83.2369 16.9788 82.7397 16.9788C82.2424 16.9788 81.9017 17.2275 81.6899 17.4116V15.4133C81.8925 15.5883 82.2332 15.8646 82.7397 15.8646C83.2461 15.8646 83.5408 15.6343 83.7618 15.4133V17.4116ZM83.7618 22.1081C83.7618 22.8816 83.3751 23.7473 82.3805 23.7473C82.224 23.7473 81.8556 23.7196 81.6991 23.7012V17.6418C81.9293 17.4393 82.224 17.163 82.7489 17.163C83.2277 17.163 83.4948 17.3932 83.771 17.6418V22.1173L83.7618 22.1081ZM91.8471 24.6313L96.4791 21.749V15.441L93.4863 13.2401L88.8543 15.8922V22.1357L87.9426 22.8632L88.0347 23.0013L88.7806 22.3844L91.8471 24.6313ZM91.5064 21.3622V14.6398L93.8178 16.3618V23.0842L91.5064 21.3622ZM105.329 13.3966C104.97 13.6452 104.647 13.7834 104.307 13.7834C103.947 13.7834 103.496 13.5532 103.257 13.2585C103.257 13.2861 101.535 15.1186 101.535 15.1186L99.8127 13.2585L97.004 15.2107L97.0961 15.3673L97.842 14.87L98.8642 15.9843V22.0897L97.6394 23.0198L97.7499 23.1303L98.3669 22.7067L100.66 24.6589L103.561 22.7343L103.469 22.5962L102.723 23.0474L101.544 21.9792V15.2752C102.023 15.8001 102.566 16.2513 103.22 16.2513C104.399 16.2513 105.191 14.8424 105.329 13.3874M116.269 22.4212L115.403 22.9645L110.615 15.8185L110.863 15.4778C111.388 15.7909 111.858 16.2237 112.862 16.2237C113.865 16.2237 115.136 15.1739 115.247 13.2493C114.998 13.59 114.501 13.9952 113.681 13.9952C113.092 13.9952 112.502 13.6084 112.143 13.2493L108.874 18.0562L113.211 24.6589L116.361 22.5685L116.269 22.412V22.4212ZM110.458 22.5962L109.731 23.075L108.736 22.0805V7.43854L105.154 9.9157C105.568 10.0538 106.065 10.2748 106.065 11.2325V22.1081L104.841 23.0382L104.951 23.1487L105.568 22.7251L107.705 24.6773L110.569 22.7711L110.476 22.633L110.458 22.5962ZM131.537 9.34475C131.537 7.48458 129.769 6.92285 128.286 6.98731V7.17149C129.17 7.23595 129.852 7.59509 129.852 8.19366C129.852 8.60805 129.557 9.12374 128.673 9.12374C127.973 9.12374 126.813 8.70935 125.726 8.35021C124.529 7.93581 123.387 7.54904 122.439 7.54904C120.578 7.54904 119.17 8.93036 119.17 10.634C119.17 12.0153 120.238 12.4941 120.671 12.6691L120.698 12.6047C120.422 12.4205 120.247 12.2179 120.247 11.6285C120.247 11.1313 120.606 10.4682 121.564 10.4682C122.429 10.4682 123.562 10.855 125.063 11.2786C126.352 11.6377 127.743 11.9785 128.516 12.0798V15.1002L127.061 16.2974L128.516 17.5498V21.6845C127.77 22.1081 126.905 22.2462 126.159 22.2462C124.778 22.2462 123.498 21.8595 122.457 20.6992L126.38 18.7929V12.2731L121.591 14.4096C122.089 13.1388 123.019 12.1903 124.041 11.5733L124.013 11.4996C121.177 12.2731 118.589 14.8792 118.589 18.1023C118.589 21.9608 121.674 24.8247 125.238 24.8247C129.097 24.8247 131.362 21.8042 131.325 18.6088H131.261C130.699 19.8335 129.76 20.9938 128.701 21.6016V17.5682L130.22 16.3434L128.701 15.1186V12.0982C130.11 12.0982 131.564 11.1681 131.564 9.37238M123.479 20.0177L122.365 20.5794C121.684 19.6954 121.232 18.443 121.232 16.8315C121.232 16.1684 121.297 15.266 121.527 14.6306L123.498 13.7465L123.47 20.0085L123.479 20.0177ZM134.465 8.68172L132.467 10.3577L134.171 12.2823L136.169 10.6064L134.465 8.68172ZM137.504 22.633L136.777 23.1118L135.782 22.1173V15.5146L136.62 14.8516L136.51 14.7135L135.81 15.2568L134.152 13.2861L131.426 15.1923L131.518 15.3489L132.2 14.8976L133.112 16.0303V22.1173L131.887 23.0474L131.997 23.1579L132.614 22.7343L134.751 24.6865L137.615 22.7803L137.523 22.6422L137.504 22.633ZM152.818 22.5409L152.137 22.9921L151.069 21.97V15.4962L151.934 14.8332L151.824 14.695L151.05 15.2844L148.776 13.2585L146.216 15.2568L143.969 13.2585L141.445 15.2291L139.742 13.2585L137.016 15.1647L137.108 15.3212L137.79 14.87L138.766 15.9843V22.0713L138.02 22.8172L140.193 24.6589L142.302 22.7527L141.436 21.9423V15.4594L141.998 15.045L143.564 16.4079V22.0805L142.836 22.8264L145.037 24.6681L147.1 22.7619L146.234 21.9515V15.4686L146.777 15.0358L148.361 16.4171V21.9976L147.726 22.6606L149.945 24.6865L152.874 22.6882L152.781 22.5501H152.8L152.818 22.5409ZM160.738 21.1596L158.565 22.8816L156.069 20.911V19.6862L160.379 16.6473L158.205 13.2677L153.417 15.9014V22.2831L156.704 24.6681L160.858 21.3346L160.747 21.178L160.738 21.1596ZM156.06 19.4283V14.6858L158.15 17.9549L156.06 19.4283ZM169.063 18.5351L167.221 17.1262C168.446 16.0579 168.878 14.7043 168.878 13.7281C168.878 13.59 168.851 13.3414 168.832 13.1111H168.759C168.584 13.6084 168.096 14.0412 167.35 14.0412C166.604 14.0412 166.189 13.6268 165.738 13.1296L161.521 15.4686V18.8942L163.132 20.165C161.521 21.5924 161.207 22.4764 161.207 23.296C161.207 24.1156 161.686 24.8339 162.506 25.1562L162.57 25.0457C162.368 24.8707 162.184 24.751 162.184 24.3182C162.184 24.0051 162.506 23.5078 163.233 23.5078C164.163 23.5078 164.734 24.1432 165.029 24.484C165.029 24.4563 169.063 22.0068 169.063 22.0068V18.5351ZM168.114 15.7264C167.479 16.8591 166.079 17.9734 165.25 18.6088L164.228 17.7431V14.4096C164.642 15.3212 165.48 16.0856 166.567 16.0856C167.202 16.0856 167.617 15.9751 168.105 15.7264M166.355 23.2131C165.876 22.1449 164.854 21.3714 163.721 21.3714C163.445 21.3714 162.607 21.3438 161.88 21.795C162.313 21.0675 163.602 19.7599 165.241 18.7745L166.355 19.7046V23.2039V23.2131Z" fill="#1D253B"/>
</g>
</svg>
