<svg width="86" height="19" viewBox="0 0 86 19" fill="none" xmlns="http://www.w3.org/2000/svg">
<path d="M83.9494 0L79.2602 10.012L77.4969 6.21837H75.5898L78.4896 12.4237H80.0309L85.8433 0H83.9494Z" fill="#1D253B"/>
<path d="M63.833 18.5904H67.6078V11.6941C67.6078 10.1167 68.5221 9.0086 69.8806 9.0086C71.239 9.0086 71.866 9.92115 71.866 11.2378V18.5904H75.6408V10.5208C75.6408 7.78318 73.995 5.85379 71.3304 5.85379C69.6324 5.85379 68.4438 6.58383 67.5556 7.91354H67.4772V6.21881H63.8199L63.833 18.5904ZM56.4139 5.87986C52.4692 5.87986 49.8307 8.70876 49.8307 12.4372C49.8307 16.1656 52.4692 18.9945 56.4139 18.9945C60.3585 18.9945 62.997 16.1395 62.997 12.4372C63.0101 8.70876 60.3585 5.87986 56.4139 5.87986ZM56.3877 16.2047C54.5983 16.2047 53.6448 14.7055 53.6448 12.4372C53.6448 10.1688 54.5852 8.66965 56.3877 8.66965C58.1903 8.66965 59.1699 10.1428 59.1699 12.4372C59.183 14.7055 58.1903 16.2047 56.3877 16.2047ZM39.0678 18.5904H49.674V15.6181H43.6656V15.5398L49.4127 9.11289V6.20577H39.0678V9.19111H44.8803V9.26933L39.0678 15.7484V18.5904ZM34.2219 18.5904H38.0229V6.21881H34.2219V18.5904ZM25.4052 18.5904H29.1931V12.9065C29.1931 10.3253 30.7474 9.17807 33.1116 9.50398H33.19V6.24488C32.9941 6.16666 32.772 6.15363 32.4194 6.15363C30.9434 6.15363 29.9507 6.83152 29.1017 8.27856H29.0233V6.21881H25.4052V18.5904ZM18.4563 16.2177C16.7844 16.2177 15.7656 15.1357 15.5697 13.4671H24.5039C24.53 10.8076 23.8247 8.68269 22.3487 7.35298C21.3038 6.38828 19.9323 5.85379 18.182 5.85379C14.4463 5.85379 11.8601 8.68269 11.8601 12.385C11.8601 16.0874 14.3288 18.9554 18.4302 18.9554C19.9845 18.9554 21.2123 18.5382 22.2312 17.8473C23.3153 17.1042 24.099 16.0092 24.308 14.9271H20.6768C20.3241 15.7354 19.5666 16.2177 18.4563 16.2177ZM18.2604 8.55233C19.5927 8.55233 20.507 9.54309 20.6637 10.9901H15.5958C15.8962 9.53006 16.693 8.55233 18.2604 8.55233ZM4.31039 18.5904H8.28117L12.5916 6.21881H8.79058L6.37415 14.171H6.32191L3.90547 6.21881H0L4.31039 18.5904ZM34.2219 1.8125H38.0229V5.17589H34.2219V1.8125Z" fill="#1D253B"/>
</svg>
