<svg width="73" height="20" viewBox="0 0 73 20" fill="none" xmlns="http://www.w3.org/2000/svg">
<path d="M0 4.87012H4.34301L6.87188 11.2618L9.43359 4.87012H13.6622L7.29484 20.0013H3.03941L4.78238 15.9918L0 4.87012Z" fill="#1D253B"/>
<path d="M18.0681 4.61426C14.805 4.61426 12.7422 7.50538 12.7422 10.3845C12.7422 13.6243 15.0038 16.1929 18.0062 16.1929C20.2459 16.1929 21.0904 14.8449 21.0904 14.8449V15.895H24.8783V4.86877H21.0904V5.87116C21.0904 5.87116 20.1482 4.61426 18.0681 4.61426ZM18.8738 8.15765C20.3795 8.15765 21.1564 9.33461 21.1564 10.3966C21.1564 11.5402 20.324 12.6624 18.8738 12.6624C17.6719 12.6624 16.5858 11.6921 16.5858 10.4453C16.5858 9.18083 17.4594 8.15765 18.8738 8.15765Z" fill="#1D253B"/>
<path d="M26.1826 15.8949V0H30.1446V5.90934C30.1446 5.90934 31.0856 4.61563 33.0566 4.61563C35.4674 4.61563 36.8799 6.3902 36.8799 8.92598V15.8949H32.9469V9.88063C32.9469 9.02247 32.5332 8.19345 31.5959 8.19345C30.6418 8.19345 30.1446 9.03503 30.1446 9.88063V15.8949H26.1826Z" fill="#1D253B"/>
<path d="M43.6339 4.61426C39.897 4.61426 37.6719 7.42144 37.6719 10.4291C37.6719 13.8518 40.366 16.1916 43.648 16.1916C46.8291 16.1916 49.6127 13.958 49.6127 10.4865C49.6127 6.68804 46.6982 4.61426 43.6339 4.61426ZM43.6695 8.18879C44.9895 8.18879 45.9029 9.27492 45.9029 10.4331C45.9029 11.421 45.0518 12.6395 43.6695 12.6395C42.403 12.6395 41.4525 11.6358 41.4525 10.4223C41.4525 9.25341 42.2427 8.18879 43.6695 8.18879Z" fill="#1D253B"/>
<path d="M56.212 4.61426C52.4751 4.61426 50.25 7.42144 50.25 10.4291C50.25 13.8518 52.9441 16.1916 56.2261 16.1916C59.4072 16.1916 62.1908 13.958 62.1908 10.4865C62.1908 6.68804 59.2763 4.61426 56.212 4.61426ZM56.2477 8.18879C57.5676 8.18879 58.481 9.27492 58.481 10.4331C58.481 11.421 57.6299 12.6395 56.2477 12.6395C54.9811 12.6395 54.0306 11.6358 54.0306 10.4223C54.0306 9.25341 54.8208 8.18879 56.2477 8.18879Z" fill="#1D253B"/>
<path d="M65.3184 16.1308C66.7714 16.1308 67.9492 14.9671 67.9492 13.5317C67.9492 12.0963 66.7714 10.9326 65.3184 10.9326C63.8654 10.9326 62.6875 12.0963 62.6875 13.5317C62.6875 14.9671 63.8654 16.1308 65.3184 16.1308Z" fill="#1D253B"/>
<path d="M68.8144 9.9761H64.0781L68.2816 0H73.0002L68.8144 9.9761Z" fill="#1D253B"/>
</svg>
